<?xml version="1.0" encoding="UTF-8" standalone="no"?>
<!DOCTYPE svg PUBLIC "-//W3C//DTD SVG 1.1//EN"
 "http://www.w3.org/Graphics/SVG/1.1/DTD/svg11.dtd">
<!-- Generated by graphviz version 2.47.0 (20210316.0004)
 -->
<!-- Title: dependencies Pages: 1 -->
<svg width="1350pt" height="211pt"
 viewBox="0.00 0.00 1350.00 211.00" xmlns="http://www.w3.org/2000/svg" xmlns:xlink="http://www.w3.org/1999/xlink">
<g id="graph0" class="graph" transform="scale(1 1) rotate(0) translate(4 207)">
<title>dependencies</title>
<polygon fill="white" stroke="transparent" points="-4,4 -4,-207 1346,-207 1346,4 -4,4"/>
<text text-anchor="start" x="650.01" y="-42.4" font-family="sans-serif" font-weight="bold" font-size="14.00">Legend</text>
<polygon fill="#ffffb3" stroke="transparent" points="437,-10 437,-30 457,-30 457,-10 437,-10"/>
<text text-anchor="start" x="460.63" y="-15.4" font-family="sans-serif" font-size="14.00"> &#160;Declarations</text>
<polygon fill="#8dd3c7" stroke="transparent" points="550,-10 550,-30 570,-30 570,-10 550,-10"/>
<text text-anchor="start" x="573.73" y="-15.4" font-family="sans-serif" font-size="14.00"> &#160;Module</text>
<polygon fill="#80b1d3" stroke="transparent" points="636,-10 636,-30 656,-30 656,-10 636,-10"/>
<text text-anchor="start" x="659.78" y="-15.4" font-family="sans-serif" font-size="14.00"> &#160;Bootstrap</text>
<polygon fill="#fdb462" stroke="transparent" points="733,-10 733,-30 753,-30 753,-10 733,-10"/>
<text text-anchor="start" x="756.67" y="-15.4" font-family="sans-serif" font-size="14.00"> &#160;Providers</text>
<polygon fill="#fb8072" stroke="transparent" points="829,-10 829,-30 849,-30 849,-10 829,-10"/>
<text text-anchor="start" x="852.73" y="-15.4" font-family="sans-serif" font-size="14.00"> &#160;Exports</text>
<g id="clust1" class="cluster">
<title>cluster_BoliviaModule</title>
<polygon fill="none" stroke="black" stroke-dasharray="1,5" points="8,-70 8,-195 1334,-195 1334,-70 8,-70"/>
</g>
<g id="clust9" class="cluster">
<title>cluster_BoliviaModule_imports</title>
<polygon fill="none" stroke="black" points="923,-78 923,-130 1326,-130 1326,-78 923,-78"/>
</g>
<g id="clust2" class="cluster">
<title>cluster_BoliviaModule_declarations</title>
<polygon fill="none" stroke="black" points="16,-78 16,-130 915,-130 915,-78 16,-78"/>
</g>
<!-- BoliviaPageComponent -->
<g id="node1" class="node">
<title>BoliviaPageComponent</title>
<polygon fill="#ffffb3" stroke="black" points="906.77,-122 757.23,-122 757.23,-86 906.77,-86 906.77,-122"/>
<text text-anchor="middle" x="832" y="-99.8" font-family="Times,serif" font-size="14.00">BoliviaPageComponent</text>
</g>
<!-- BoliviaModule -->
<g id="node7" class="node">
<title>BoliviaModule</title>
<polygon fill="#8dd3c7" stroke="black" points="733.27,-187 730.27,-191 709.27,-191 706.27,-187 632.73,-187 632.73,-151 733.27,-151 733.27,-187"/>
<text text-anchor="middle" x="683" y="-164.8" font-family="Times,serif" font-size="14.00">BoliviaModule</text>
</g>
<!-- BoliviaPageComponent&#45;&gt;BoliviaModule -->
<g id="edge1" class="edge">
<title>BoliviaPageComponent&#45;&gt;BoliviaModule</title>
<path fill="none" stroke="black" d="M832,-122.01C832,-138.05 832,-159 832,-159 832,-159 743.44,-159 743.44,-159"/>
<polygon fill="black" stroke="black" points="743.44,-155.5 733.44,-159 743.44,-162.5 743.44,-155.5"/>
</g>
<!-- ChartComponent -->
<g id="node2" class="node">
<title>ChartComponent</title>
<polygon fill="#ffffb3" stroke="black" points="739.44,-122 626.56,-122 626.56,-86 739.44,-86 739.44,-122"/>
<text text-anchor="middle" x="683" y="-99.8" font-family="Times,serif" font-size="14.00">ChartComponent</text>
</g>
<!-- ChartComponent&#45;&gt;BoliviaModule -->
<g id="edge2" class="edge">
<title>ChartComponent&#45;&gt;BoliviaModule</title>
<path fill="none" stroke="black" d="M683,-122.11C683,-122.11 683,-140.99 683,-140.99"/>
<polygon fill="black" stroke="black" points="679.5,-140.99 683,-150.99 686.5,-140.99 679.5,-140.99"/>
</g>
<!-- ClientDatasetsComponent -->
<g id="node3" class="node">
<title>ClientDatasetsComponent</title>
<polygon fill="#ffffb3" stroke="black" points="608.48,-122 445.52,-122 445.52,-86 608.48,-86 608.48,-122"/>
<text text-anchor="middle" x="527" y="-99.8" font-family="Times,serif" font-size="14.00">ClientDatasetsComponent</text>
</g>
<!-- ClientDatasetsComponent&#45;&gt;BoliviaModule -->
<g id="edge3" class="edge">
<title>ClientDatasetsComponent&#45;&gt;BoliviaModule</title>
<path fill="none" stroke="black" d="M527,-122.01C527,-138.05 527,-159 527,-159 527,-159 622.35,-159 622.35,-159"/>
<polygon fill="black" stroke="black" points="622.35,-162.5 632.35,-159 622.35,-155.5 622.35,-162.5"/>
</g>
<!-- DepartmentComponent -->
<g id="node4" class="node">
<title>DepartmentComponent</title>
<polygon fill="#ffffb3" stroke="black" points="427.92,-122 280.08,-122 280.08,-86 427.92,-86 427.92,-122"/>
<text text-anchor="middle" x="354" y="-99.8" font-family="Times,serif" font-size="14.00">DepartmentComponent</text>
</g>
<!-- DepartmentComponent&#45;&gt;BoliviaModule -->
<g id="edge4" class="edge">
<title>DepartmentComponent&#45;&gt;BoliviaModule</title>
<path fill="none" stroke="black" d="M354,-122.27C354,-140.56 354,-166 354,-166 354,-166 622.67,-166 622.67,-166"/>
<polygon fill="black" stroke="black" points="622.67,-169.5 632.67,-166 622.67,-162.5 622.67,-169.5"/>
</g>
<!-- MapComponent -->
<g id="node5" class="node">
<title>MapComponent</title>
<polygon fill="#ffffb3" stroke="black" points="262.49,-122 155.51,-122 155.51,-86 262.49,-86 262.49,-122"/>
<text text-anchor="middle" x="209" y="-99.8" font-family="Times,serif" font-size="14.00">MapComponent</text>
</g>
<!-- MapComponent&#45;&gt;BoliviaModule -->
<g id="edge5" class="edge">
<title>MapComponent&#45;&gt;BoliviaModule</title>
<path fill="none" stroke="black" d="M209,-122.13C209,-142.57 209,-173 209,-173 209,-173 622.72,-173 622.72,-173"/>
<polygon fill="black" stroke="black" points="622.72,-176.5 632.72,-173 622.72,-169.5 622.72,-176.5"/>
</g>
<!-- TableComponent -->
<g id="node6" class="node">
<title>TableComponent</title>
<polygon fill="#ffffb3" stroke="black" points="137.7,-122 24.3,-122 24.3,-86 137.7,-86 137.7,-122"/>
<text text-anchor="middle" x="81" y="-99.8" font-family="Times,serif" font-size="14.00">TableComponent</text>
</g>
<!-- TableComponent&#45;&gt;BoliviaModule -->
<g id="edge6" class="edge">
<title>TableComponent&#45;&gt;BoliviaModule</title>
<path fill="none" stroke="black" d="M81,-122.01C81,-144.49 81,-180 81,-180 81,-180 622.71,-180 622.71,-180"/>
<polygon fill="black" stroke="black" points="622.71,-183.5 632.71,-180 622.71,-176.5 622.71,-183.5"/>
</g>
<!-- BoliviaRoutingModule -->
<g id="node8" class="node">
<title>BoliviaRoutingModule</title>
<polygon fill="#8dd3c7" stroke="black" points="1317.89,-122 1314.89,-126 1293.89,-126 1290.89,-122 1172.11,-122 1172.11,-86 1317.89,-86 1317.89,-122"/>
<text text-anchor="middle" x="1245" y="-99.8" font-family="Times,serif" font-size="14.00">BoliviaRoutingModule</text>
</g>
<!-- BoliviaRoutingModule&#45;&gt;BoliviaModule -->
<g id="edge7" class="edge">
<title>BoliviaRoutingModule&#45;&gt;BoliviaModule</title>
<path fill="none" stroke="black" d="M1245,-122.01C1245,-144.49 1245,-180 1245,-180 1245,-180 743.37,-180 743.37,-180"/>
<polygon fill="black" stroke="black" points="743.37,-176.5 733.37,-180 743.37,-183.5 743.37,-176.5"/>
</g>
<!-- MaterialModule -->
<g id="node9" class="node">
<title>MaterialModule</title>
<polygon fill="#8dd3c7" stroke="black" points="1154.47,-122 1151.47,-126 1130.47,-126 1127.47,-122 1047.53,-122 1047.53,-86 1154.47,-86 1154.47,-122"/>
<text text-anchor="middle" x="1101" y="-99.8" font-family="Times,serif" font-size="14.00">MaterialModule</text>
</g>
<!-- MaterialModule&#45;&gt;BoliviaModule -->
<g id="edge8" class="edge">
<title>MaterialModule&#45;&gt;BoliviaModule</title>
<path fill="none" stroke="black" d="M1101,-122.13C1101,-142.57 1101,-173 1101,-173 1101,-173 743.42,-173 743.42,-173"/>
<polygon fill="black" stroke="black" points="743.42,-169.5 733.42,-173 743.42,-176.5 743.42,-169.5"/>
</g>
<!-- SharedModule -->
<g id="node10" class="node">
<title>SharedModule</title>
<polygon fill="#8dd3c7" stroke="black" points="1029.42,-122 1026.42,-126 1005.42,-126 1002.42,-122 930.58,-122 930.58,-86 1029.42,-86 1029.42,-122"/>
<text text-anchor="middle" x="980" y="-99.8" font-family="Times,serif" font-size="14.00">SharedModule</text>
</g>
<!-- SharedModule&#45;&gt;BoliviaModule -->
<g id="edge9" class="edge">
<title>SharedModule&#45;&gt;BoliviaModule</title>
<path fill="none" stroke="black" d="M980,-122.27C980,-140.56 980,-166 980,-166 980,-166 743.38,-166 743.38,-166"/>
<polygon fill="black" stroke="black" points="743.38,-162.5 733.38,-166 743.38,-169.5 743.38,-162.5"/>
</g>
</g>
</svg>
