<?xml version="1.0" encoding="UTF-8" standalone="no"?>
<!DOCTYPE svg PUBLIC "-//W3C//DTD SVG 1.1//EN"
 "http://www.w3.org/Graphics/SVG/1.1/DTD/svg11.dtd">
<!-- Generated by graphviz version 2.47.0 (20210316.0004)
 -->
<!-- Title: dependencies Pages: 1 -->
<svg width="1350pt" height="211pt"
 viewBox="0.00 0.00 1350.00 211.00" xmlns="http://www.w3.org/2000/svg" xmlns:xlink="http://www.w3.org/1999/xlink">
<g id="graph0" class="graph" transform="scale(1 1) rotate(0) translate(4 207)">
<title>dependencies</title>
<polygon fill="white" stroke="transparent" points="-4,4 -4,-207 1346,-207 1346,4 -4,4"/>
<text text-anchor="start" x="650.01" y="-42.4" font-family="sans-serif" font-weight="bold" font-size="14.00">Legend</text>
<polygon fill="#ffffb3" stroke="transparent" points="437,-10 437,-30 457,-30 457,-10 437,-10"/>
<text text-anchor="start" x="460.63" y="-15.4" font-family="sans-serif" font-size="14.00"> &#160;Declarations</text>
<polygon fill="#8dd3c7" stroke="transparent" points="550,-10 550,-30 570,-30 570,-10 550,-10"/>
<text text-anchor="start" x="573.73" y="-15.4" font-family="sans-serif" font-size="14.00"> &#160;Module</text>
<polygon fill="#80b1d3" stroke="transparent" points="636,-10 636,-30 656,-30 656,-10 636,-10"/>
<text text-anchor="start" x="659.78" y="-15.4" font-family="sans-serif" font-size="14.00"> &#160;Bootstrap</text>
<polygon fill="#fdb462" stroke="transparent" points="733,-10 733,-30 753,-30 753,-10 733,-10"/>
<text text-anchor="start" x="756.67" y="-15.4" font-family="sans-serif" font-size="14.00"> &#160;Providers</text>
<polygon fill="#fb8072" stroke="transparent" points="829,-10 829,-30 849,-30 849,-10 829,-10"/>
<text text-anchor="start" x="852.73" y="-15.4" font-family="sans-serif" font-size="14.00"> &#160;Exports</text>
<g id="clust1" class="cluster">
<title>cluster_BoliviaModule</title>
<polygon fill="none" stroke="black" stroke-dasharray="1,5" points="8,-70 8,-195 1334,-195 1334,-70 8,-70"/>
</g>
<g id="clust2" class="cluster">
<title>cluster_BoliviaModule_declarations</title>
<polygon fill="none" stroke="black" points="427,-78 427,-130 1326,-130 1326,-78 427,-78"/>
</g>
<g id="clust9" class="cluster">
<title>cluster_BoliviaModule_imports</title>
<polygon fill="none" stroke="black" points="16,-78 16,-130 419,-130 419,-78 16,-78"/>
</g>
<!-- BoliviaPageComponent -->
<g id="node1" class="node">
<title>BoliviaPageComponent</title>
<polygon fill="#ffffb3" stroke="black" points="1317.77,-122 1168.23,-122 1168.23,-86 1317.77,-86 1317.77,-122"/>
<text text-anchor="middle" x="1243" y="-99.8" font-family="Times,serif" font-size="14.00">BoliviaPageComponent</text>
</g>
<!-- BoliviaModule -->
<g id="node7" class="node">
<title>BoliviaModule</title>
<polygon fill="#8dd3c7" stroke="black" points="670.27,-187 667.27,-191 646.27,-191 643.27,-187 569.73,-187 569.73,-151 670.27,-151 670.27,-187"/>
<text text-anchor="middle" x="620" y="-164.8" font-family="Times,serif" font-size="14.00">BoliviaModule</text>
</g>
<!-- BoliviaPageComponent&#45;&gt;BoliviaModule -->
<g id="edge1" class="edge">
<title>BoliviaPageComponent&#45;&gt;BoliviaModule</title>
<path fill="none" stroke="black" d="M1243,-122.01C1243,-144.49 1243,-180 1243,-180 1243,-180 680.45,-180 680.45,-180"/>
<polygon fill="black" stroke="black" points="680.46,-176.5 670.45,-180 680.45,-183.5 680.46,-176.5"/>
</g>
<!-- ChartComponent -->
<g id="node2" class="node">
<title>ChartComponent</title>
<polygon fill="#ffffb3" stroke="black" points="1150.44,-122 1037.56,-122 1037.56,-86 1150.44,-86 1150.44,-122"/>
<text text-anchor="middle" x="1094" y="-99.8" font-family="Times,serif" font-size="14.00">ChartComponent</text>
</g>
<!-- ChartComponent&#45;&gt;BoliviaModule -->
<g id="edge2" class="edge">
<title>ChartComponent&#45;&gt;BoliviaModule</title>
<path fill="none" stroke="black" d="M1094,-122.13C1094,-142.57 1094,-173 1094,-173 1094,-173 680.28,-173 680.28,-173"/>
<polygon fill="black" stroke="black" points="680.28,-169.5 670.28,-173 680.28,-176.5 680.28,-169.5"/>
</g>
<!-- ClientDatasetsComponent -->
<g id="node3" class="node">
<title>ClientDatasetsComponent</title>
<polygon fill="#ffffb3" stroke="black" points="1019.48,-122 856.52,-122 856.52,-86 1019.48,-86 1019.48,-122"/>
<text text-anchor="middle" x="938" y="-99.8" font-family="Times,serif" font-size="14.00">ClientDatasetsComponent</text>
</g>
<!-- ClientDatasetsComponent&#45;&gt;BoliviaModule -->
<g id="edge3" class="edge">
<title>ClientDatasetsComponent&#45;&gt;BoliviaModule</title>
<path fill="none" stroke="black" d="M938,-122.27C938,-140.56 938,-166 938,-166 938,-166 680.39,-166 680.39,-166"/>
<polygon fill="black" stroke="black" points="680.39,-162.5 670.39,-166 680.39,-169.5 680.39,-162.5"/>
</g>
<!-- DepartmentComponent -->
<g id="node4" class="node">
<title>DepartmentComponent</title>
<polygon fill="#ffffb3" stroke="black" points="838.92,-122 691.08,-122 691.08,-86 838.92,-86 838.92,-122"/>
<text text-anchor="middle" x="765" y="-99.8" font-family="Times,serif" font-size="14.00">DepartmentComponent</text>
</g>
<!-- DepartmentComponent&#45;&gt;BoliviaModule -->
<g id="edge4" class="edge">
<title>DepartmentComponent&#45;&gt;BoliviaModule</title>
<path fill="none" stroke="black" d="M765,-122.01C765,-138.05 765,-159 765,-159 765,-159 680.31,-159 680.31,-159"/>
<polygon fill="black" stroke="black" points="680.31,-155.5 670.31,-159 680.31,-162.5 680.31,-155.5"/>
</g>
<!-- MapComponent -->
<g id="node5" class="node">
<title>MapComponent</title>
<polygon fill="#ffffb3" stroke="black" points="673.49,-122 566.51,-122 566.51,-86 673.49,-86 673.49,-122"/>
<text text-anchor="middle" x="620" y="-99.8" font-family="Times,serif" font-size="14.00">MapComponent</text>
</g>
<!-- MapComponent&#45;&gt;BoliviaModule -->
<g id="edge5" class="edge">
<title>MapComponent&#45;&gt;BoliviaModule</title>
<path fill="none" stroke="black" d="M620,-122.11C620,-122.11 620,-140.99 620,-140.99"/>
<polygon fill="black" stroke="black" points="616.5,-140.99 620,-150.99 623.5,-140.99 616.5,-140.99"/>
</g>
<!-- TableComponent -->
<g id="node6" class="node">
<title>TableComponent</title>
<polygon fill="#ffffb3" stroke="black" points="548.7,-122 435.3,-122 435.3,-86 548.7,-86 548.7,-122"/>
<text text-anchor="middle" x="492" y="-99.8" font-family="Times,serif" font-size="14.00">TableComponent</text>
</g>
<!-- TableComponent&#45;&gt;BoliviaModule -->
<g id="edge6" class="edge">
<title>TableComponent&#45;&gt;BoliviaModule</title>
<path fill="none" stroke="black" d="M492,-122.01C492,-138.05 492,-159 492,-159 492,-159 559.41,-159 559.41,-159"/>
<polygon fill="black" stroke="black" points="559.41,-162.5 569.41,-159 559.41,-155.5 559.41,-162.5"/>
</g>
<!-- BoliviaRoutingModule -->
<g id="node8" class="node">
<title>BoliviaRoutingModule</title>
<polygon fill="#8dd3c7" stroke="black" points="410.89,-122 407.89,-126 386.89,-126 383.89,-122 265.11,-122 265.11,-86 410.89,-86 410.89,-122"/>
<text text-anchor="middle" x="338" y="-99.8" font-family="Times,serif" font-size="14.00">BoliviaRoutingModule</text>
</g>
<!-- BoliviaRoutingModule&#45;&gt;BoliviaModule -->
<g id="edge7" class="edge">
<title>BoliviaRoutingModule&#45;&gt;BoliviaModule</title>
<path fill="none" stroke="black" d="M338,-122.27C338,-140.56 338,-166 338,-166 338,-166 559.58,-166 559.58,-166"/>
<polygon fill="black" stroke="black" points="559.58,-169.5 569.58,-166 559.58,-162.5 559.58,-169.5"/>
</g>
<!-- MaterialModule -->
<g id="node9" class="node">
<title>MaterialModule</title>
<polygon fill="#8dd3c7" stroke="black" points="247.47,-122 244.47,-126 223.47,-126 220.47,-122 140.53,-122 140.53,-86 247.47,-86 247.47,-122"/>
<text text-anchor="middle" x="194" y="-99.8" font-family="Times,serif" font-size="14.00">MaterialModule</text>
</g>
<!-- MaterialModule&#45;&gt;BoliviaModule -->
<g id="edge8" class="edge">
<title>MaterialModule&#45;&gt;BoliviaModule</title>
<path fill="none" stroke="black" d="M194,-122.13C194,-142.57 194,-173 194,-173 194,-173 559.46,-173 559.46,-173"/>
<polygon fill="black" stroke="black" points="559.46,-176.5 569.46,-173 559.46,-169.5 559.46,-176.5"/>
</g>
<!-- SharedModule -->
<g id="node10" class="node">
<title>SharedModule</title>
<polygon fill="#8dd3c7" stroke="black" points="122.42,-122 119.42,-126 98.42,-126 95.42,-122 23.58,-122 23.58,-86 122.42,-86 122.42,-122"/>
<text text-anchor="middle" x="73" y="-99.8" font-family="Times,serif" font-size="14.00">SharedModule</text>
</g>
<!-- SharedModule&#45;&gt;BoliviaModule -->
<g id="edge9" class="edge">
<title>SharedModule&#45;&gt;BoliviaModule</title>
<path fill="none" stroke="black" d="M73,-122.01C73,-144.49 73,-180 73,-180 73,-180 559.52,-180 559.52,-180"/>
<polygon fill="black" stroke="black" points="559.52,-183.5 569.52,-180 559.52,-176.5 559.52,-183.5"/>
</g>
</g>
</svg>
