<?xml version="1.0" encoding="UTF-8" standalone="no"?>
<!DOCTYPE svg PUBLIC "-//W3C//DTD SVG 1.1//EN"
 "http://www.w3.org/Graphics/SVG/1.1/DTD/svg11.dtd">
<!-- Generated by graphviz version 2.47.0 (20210316.0004)
 -->
<!-- Title: dependencies Pages: 1 -->
<svg width="714pt" height="284pt"
 viewBox="0.00 0.00 714.00 284.00" xmlns="http://www.w3.org/2000/svg" xmlns:xlink="http://www.w3.org/1999/xlink">
<g id="graph0" class="graph" transform="scale(1 1) rotate(0) translate(4 280)">
<title>dependencies</title>
<polygon fill="white" stroke="transparent" points="-4,4 -4,-280 710,-280 710,4 -4,4"/>
<text text-anchor="start" x="332.01" y="-42.4" font-family="sans-serif" font-weight="bold" font-size="14.00">Legend</text>
<polygon fill="#ffffb3" stroke="transparent" points="119,-10 119,-30 139,-30 139,-10 119,-10"/>
<text text-anchor="start" x="142.63" y="-15.4" font-family="sans-serif" font-size="14.00"> &#160;Declarations</text>
<polygon fill="#8dd3c7" stroke="transparent" points="232,-10 232,-30 252,-30 252,-10 232,-10"/>
<text text-anchor="start" x="255.73" y="-15.4" font-family="sans-serif" font-size="14.00"> &#160;Module</text>
<polygon fill="#80b1d3" stroke="transparent" points="318,-10 318,-30 338,-30 338,-10 318,-10"/>
<text text-anchor="start" x="341.78" y="-15.4" font-family="sans-serif" font-size="14.00"> &#160;Bootstrap</text>
<polygon fill="#fdb462" stroke="transparent" points="415,-10 415,-30 435,-30 435,-10 415,-10"/>
<text text-anchor="start" x="438.67" y="-15.4" font-family="sans-serif" font-size="14.00"> &#160;Providers</text>
<polygon fill="#fb8072" stroke="transparent" points="511,-10 511,-30 531,-30 531,-10 511,-10"/>
<text text-anchor="start" x="534.73" y="-15.4" font-family="sans-serif" font-size="14.00"> &#160;Exports</text>
<g id="clust1" class="cluster">
<title>cluster_SharedModule</title>
<polygon fill="none" stroke="black" stroke-dasharray="1,5" points="8,-70 8,-268 698,-268 698,-70 8,-70"/>
</g>
<g id="clust2" class="cluster">
<title>cluster_SharedModule_declarations</title>
<polygon fill="none" stroke="black" points="146,-78 146,-130 690,-130 690,-78 146,-78"/>
</g>
<g id="clust7" class="cluster">
<title>cluster_SharedModule_imports</title>
<polygon fill="none" stroke="black" points="16,-78 16,-130 138,-130 138,-78 16,-78"/>
</g>
<g id="clust8" class="cluster">
<title>cluster_SharedModule_exports</title>
<polygon fill="none" stroke="black" points="74,-208 74,-260 633,-260 633,-208 74,-208"/>
</g>
<!-- FooterComponent -->
<g id="node1" class="node">
<title>FooterComponent</title>
<polygon fill="#ffffb3" stroke="black" points="681.88,-122 564.12,-122 564.12,-86 681.88,-86 681.88,-122"/>
<text text-anchor="middle" x="623" y="-99.8" font-family="Times,serif" font-size="14.00">FooterComponent</text>
</g>
<!-- SharedModule -->
<g id="node5" class="node">
<title>SharedModule</title>
<polygon fill="#8dd3c7" stroke="black" points="400.42,-187 397.42,-191 376.42,-191 373.42,-187 301.58,-187 301.58,-151 400.42,-151 400.42,-187"/>
<text text-anchor="middle" x="351" y="-164.8" font-family="Times,serif" font-size="14.00">SharedModule</text>
</g>
<!-- FooterComponent&#45;&gt;SharedModule -->
<g id="edge1" class="edge">
<title>FooterComponent&#45;&gt;SharedModule</title>
<path fill="none" stroke="black" d="M594.38,-122.11C594.38,-141.34 594.38,-169 594.38,-169 594.38,-169 410.25,-169 410.25,-169"/>
<polygon fill="black" stroke="black" points="410.25,-165.5 400.25,-169 410.25,-172.5 410.25,-165.5"/>
</g>
<!-- HeaderComponent -->
<g id="node2" class="node">
<title>HeaderComponent</title>
<polygon fill="#ffffb3" stroke="black" points="545.74,-122 424.26,-122 424.26,-86 545.74,-86 545.74,-122"/>
<text text-anchor="middle" x="485" y="-99.8" font-family="Times,serif" font-size="14.00">HeaderComponent</text>
</g>
<!-- HeaderComponent&#45;&gt;SharedModule -->
<g id="edge2" class="edge">
<title>HeaderComponent&#45;&gt;SharedModule</title>
<path fill="none" stroke="black" d="M454.88,-122.03C454.88,-138.4 454.88,-160 454.88,-160 454.88,-160 410.5,-160 410.5,-160"/>
<polygon fill="black" stroke="black" points="410.5,-156.5 400.5,-160 410.5,-163.5 410.5,-156.5"/>
</g>
<!-- MainComponent -->
<g id="node3" class="node">
<title>MainComponent</title>
<polygon fill="#ffffb3" stroke="black" points="406.38,-122 295.62,-122 295.62,-86 406.38,-86 406.38,-122"/>
<text text-anchor="middle" x="351" y="-99.8" font-family="Times,serif" font-size="14.00">MainComponent</text>
</g>
<!-- MainComponent&#45;&gt;SharedModule -->
<g id="edge3" class="edge">
<title>MainComponent&#45;&gt;SharedModule</title>
<path fill="none" stroke="black" d="M351,-122.11C351,-122.11 351,-140.99 351,-140.99"/>
<polygon fill="black" stroke="black" points="347.5,-140.99 351,-150.99 354.5,-140.99 347.5,-140.99"/>
</g>
<!-- SidebarComponent -->
<g id="node4" class="node">
<title>SidebarComponent</title>
<polygon fill="#ffffb3" stroke="black" points="278.1,-122 153.9,-122 153.9,-86 278.1,-86 278.1,-122"/>
<text text-anchor="middle" x="216" y="-99.8" font-family="Times,serif" font-size="14.00">SidebarComponent</text>
</g>
<!-- SidebarComponent&#45;&gt;SharedModule -->
<g id="edge4" class="edge">
<title>SidebarComponent&#45;&gt;SharedModule</title>
<path fill="none" stroke="black" d="M252.93,-122.03C252.93,-138.4 252.93,-160 252.93,-160 252.93,-160 291.68,-160 291.68,-160"/>
<polygon fill="black" stroke="black" points="291.68,-163.5 301.68,-160 291.68,-156.5 291.68,-163.5"/>
</g>
<!-- FooterComponent  -->
<g id="node7" class="node">
<title>FooterComponent </title>
<polygon fill="#fb8072" stroke="black" points="624.88,-252 503.12,-252 503.12,-216 624.88,-216 624.88,-252"/>
<text text-anchor="middle" x="564" y="-229.8" font-family="Times,serif" font-size="14.00">FooterComponent </text>
</g>
<!-- SharedModule&#45;&gt;FooterComponent  -->
<g id="edge6" class="edge">
<title>SharedModule&#45;&gt;FooterComponent </title>
<path fill="none" stroke="black" stroke-dasharray="5,2" d="M400.28,-178C451.6,-178 524.59,-178 524.59,-178 524.59,-178 524.59,-205.97 524.59,-205.97"/>
<polygon fill="black" stroke="black" points="521.09,-205.97 524.59,-215.97 528.09,-205.97 521.09,-205.97"/>
</g>
<!-- HeaderComponent  -->
<g id="node8" class="node">
<title>HeaderComponent </title>
<polygon fill="#fb8072" stroke="black" points="485.74,-252 360.26,-252 360.26,-216 485.74,-216 485.74,-252"/>
<text text-anchor="middle" x="423" y="-229.8" font-family="Times,serif" font-size="14.00">HeaderComponent </text>
</g>
<!-- SharedModule&#45;&gt;HeaderComponent  -->
<g id="edge7" class="edge">
<title>SharedModule&#45;&gt;HeaderComponent </title>
<path fill="none" stroke="black" stroke-dasharray="5,2" d="M380.29,-187.11C380.29,-187.11 380.29,-205.99 380.29,-205.99"/>
<polygon fill="black" stroke="black" points="376.79,-205.99 380.29,-215.99 383.79,-205.99 376.79,-205.99"/>
</g>
<!-- MainComponent  -->
<g id="node9" class="node">
<title>MainComponent </title>
<polygon fill="#fb8072" stroke="black" points="342.38,-252 227.62,-252 227.62,-216 342.38,-216 342.38,-252"/>
<text text-anchor="middle" x="285" y="-229.8" font-family="Times,serif" font-size="14.00">MainComponent </text>
</g>
<!-- SharedModule&#45;&gt;MainComponent  -->
<g id="edge8" class="edge">
<title>SharedModule&#45;&gt;MainComponent </title>
<path fill="none" stroke="black" stroke-dasharray="5,2" d="M321.99,-187.11C321.99,-187.11 321.99,-205.99 321.99,-205.99"/>
<polygon fill="black" stroke="black" points="318.49,-205.99 321.99,-215.99 325.49,-205.99 318.49,-205.99"/>
</g>
<!-- SidebarComponent  -->
<g id="node10" class="node">
<title>SidebarComponent </title>
<polygon fill="#fb8072" stroke="black" points="209.6,-252 82.4,-252 82.4,-216 209.6,-216 209.6,-252"/>
<text text-anchor="middle" x="146" y="-229.8" font-family="Times,serif" font-size="14.00">SidebarComponent </text>
</g>
<!-- SharedModule&#45;&gt;SidebarComponent  -->
<g id="edge9" class="edge">
<title>SharedModule&#45;&gt;SidebarComponent </title>
<path fill="none" stroke="black" stroke-dasharray="5,2" d="M301.63,-178C251.71,-178 181.88,-178 181.88,-178 181.88,-178 181.88,-205.97 181.88,-205.97"/>
<polygon fill="black" stroke="black" points="178.38,-205.97 181.88,-215.97 185.38,-205.97 178.38,-205.97"/>
</g>
<!-- MaterialModule -->
<g id="node6" class="node">
<title>MaterialModule</title>
<polygon fill="#8dd3c7" stroke="black" points="130.47,-122 127.47,-126 106.47,-126 103.47,-122 23.53,-122 23.53,-86 130.47,-86 130.47,-122"/>
<text text-anchor="middle" x="77" y="-99.8" font-family="Times,serif" font-size="14.00">MaterialModule</text>
</g>
<!-- MaterialModule&#45;&gt;SharedModule -->
<g id="edge5" class="edge">
<title>MaterialModule&#45;&gt;SharedModule</title>
<path fill="none" stroke="black" d="M106.34,-122.11C106.34,-141.34 106.34,-169 106.34,-169 106.34,-169 291.78,-169 291.78,-169"/>
<polygon fill="black" stroke="black" points="291.78,-172.5 301.78,-169 291.78,-165.5 291.78,-172.5"/>
</g>
</g>
</svg>
