<?xml version="1.0" encoding="UTF-8" standalone="no"?>
<!DOCTYPE svg PUBLIC "-//W3C//DTD SVG 1.1//EN"
 "http://www.w3.org/Graphics/SVG/1.1/DTD/svg11.dtd">
<!-- Generated by graphviz version 2.47.0 (20210316.0004)
 -->
<!-- Title: dependencies Pages: 1 -->
<svg width="714pt" height="284pt"
 viewBox="0.00 0.00 714.00 284.00" xmlns="http://www.w3.org/2000/svg" xmlns:xlink="http://www.w3.org/1999/xlink">
<g id="graph0" class="graph" transform="scale(1 1) rotate(0) translate(4 280)">
<title>dependencies</title>
<polygon fill="white" stroke="transparent" points="-4,4 -4,-280 710,-280 710,4 -4,4"/>
<text text-anchor="start" x="332.01" y="-42.4" font-family="sans-serif" font-weight="bold" font-size="14.00">Legend</text>
<polygon fill="#ffffb3" stroke="transparent" points="119,-10 119,-30 139,-30 139,-10 119,-10"/>
<text text-anchor="start" x="142.63" y="-15.4" font-family="sans-serif" font-size="14.00"> &#160;Declarations</text>
<polygon fill="#8dd3c7" stroke="transparent" points="232,-10 232,-30 252,-30 252,-10 232,-10"/>
<text text-anchor="start" x="255.73" y="-15.4" font-family="sans-serif" font-size="14.00"> &#160;Module</text>
<polygon fill="#80b1d3" stroke="transparent" points="318,-10 318,-30 338,-30 338,-10 318,-10"/>
<text text-anchor="start" x="341.78" y="-15.4" font-family="sans-serif" font-size="14.00"> &#160;Bootstrap</text>
<polygon fill="#fdb462" stroke="transparent" points="415,-10 415,-30 435,-30 435,-10 415,-10"/>
<text text-anchor="start" x="438.67" y="-15.4" font-family="sans-serif" font-size="14.00"> &#160;Providers</text>
<polygon fill="#fb8072" stroke="transparent" points="511,-10 511,-30 531,-30 531,-10 511,-10"/>
<text text-anchor="start" x="534.73" y="-15.4" font-family="sans-serif" font-size="14.00"> &#160;Exports</text>
<g id="clust1" class="cluster">
<title>cluster_SharedModule</title>
<polygon fill="none" stroke="black" stroke-dasharray="1,5" points="8,-70 8,-268 698,-268 698,-70 8,-70"/>
</g>
<g id="clust8" class="cluster">
<title>cluster_SharedModule_exports</title>
<polygon fill="none" stroke="black" points="74,-208 74,-260 633,-260 633,-208 74,-208"/>
</g>
<g id="clust7" class="cluster">
<title>cluster_SharedModule_imports</title>
<polygon fill="none" stroke="black" points="568,-78 568,-130 690,-130 690,-78 568,-78"/>
</g>
<g id="clust2" class="cluster">
<title>cluster_SharedModule_declarations</title>
<polygon fill="none" stroke="black" points="16,-78 16,-130 560,-130 560,-78 16,-78"/>
</g>
<!-- FooterComponent -->
<g id="node1" class="node">
<title>FooterComponent</title>
<polygon fill="#ffffb3" stroke="black" points="551.88,-122 434.12,-122 434.12,-86 551.88,-86 551.88,-122"/>
<text text-anchor="middle" x="493" y="-99.8" font-family="Times,serif" font-size="14.00">FooterComponent</text>
</g>
<!-- SharedModule -->
<g id="node5" class="node">
<title>SharedModule</title>
<polygon fill="#8dd3c7" stroke="black" points="404.42,-187 401.42,-191 380.42,-191 377.42,-187 305.58,-187 305.58,-151 404.42,-151 404.42,-187"/>
<text text-anchor="middle" x="355" y="-164.8" font-family="Times,serif" font-size="14.00">SharedModule</text>
</g>
<!-- FooterComponent&#45;&gt;SharedModule -->
<g id="edge1" class="edge">
<title>FooterComponent&#45;&gt;SharedModule</title>
<path fill="none" stroke="black" d="M459.84,-122.03C459.84,-138.4 459.84,-160 459.84,-160 459.84,-160 414.35,-160 414.35,-160"/>
<polygon fill="black" stroke="black" points="414.35,-156.5 404.35,-160 414.35,-163.5 414.35,-156.5"/>
</g>
<!-- HeaderComponent -->
<g id="node2" class="node">
<title>HeaderComponent</title>
<polygon fill="#ffffb3" stroke="black" points="415.74,-122 294.26,-122 294.26,-86 415.74,-86 415.74,-122"/>
<text text-anchor="middle" x="355" y="-99.8" font-family="Times,serif" font-size="14.00">HeaderComponent</text>
</g>
<!-- HeaderComponent&#45;&gt;SharedModule -->
<g id="edge2" class="edge">
<title>HeaderComponent&#45;&gt;SharedModule</title>
<path fill="none" stroke="black" d="M355,-122.11C355,-122.11 355,-140.99 355,-140.99"/>
<polygon fill="black" stroke="black" points="351.5,-140.99 355,-150.99 358.5,-140.99 351.5,-140.99"/>
</g>
<!-- MainComponent -->
<g id="node3" class="node">
<title>MainComponent</title>
<polygon fill="#ffffb3" stroke="black" points="276.38,-122 165.62,-122 165.62,-86 276.38,-86 276.38,-122"/>
<text text-anchor="middle" x="221" y="-99.8" font-family="Times,serif" font-size="14.00">MainComponent</text>
</g>
<!-- MainComponent&#45;&gt;SharedModule -->
<g id="edge3" class="edge">
<title>MainComponent&#45;&gt;SharedModule</title>
<path fill="none" stroke="black" d="M252.12,-122.03C252.12,-138.4 252.12,-160 252.12,-160 252.12,-160 295.67,-160 295.67,-160"/>
<polygon fill="black" stroke="black" points="295.67,-163.5 305.67,-160 295.67,-156.5 295.67,-163.5"/>
</g>
<!-- SidebarComponent -->
<g id="node4" class="node">
<title>SidebarComponent</title>
<polygon fill="#ffffb3" stroke="black" points="148.1,-122 23.9,-122 23.9,-86 148.1,-86 148.1,-122"/>
<text text-anchor="middle" x="86" y="-99.8" font-family="Times,serif" font-size="14.00">SidebarComponent</text>
</g>
<!-- SidebarComponent&#45;&gt;SharedModule -->
<g id="edge4" class="edge">
<title>SidebarComponent&#45;&gt;SharedModule</title>
<path fill="none" stroke="black" d="M115.12,-122.11C115.12,-141.34 115.12,-169 115.12,-169 115.12,-169 295.59,-169 295.59,-169"/>
<polygon fill="black" stroke="black" points="295.59,-172.5 305.59,-169 295.59,-165.5 295.59,-172.5"/>
</g>
<!-- FooterComponent  -->
<g id="node7" class="node">
<title>FooterComponent </title>
<polygon fill="#fb8072" stroke="black" points="624.88,-252 503.12,-252 503.12,-216 624.88,-216 624.88,-252"/>
<text text-anchor="middle" x="564" y="-229.8" font-family="Times,serif" font-size="14.00">FooterComponent </text>
</g>
<!-- SharedModule&#45;&gt;FooterComponent  -->
<g id="edge6" class="edge">
<title>SharedModule&#45;&gt;FooterComponent </title>
<path fill="none" stroke="black" stroke-dasharray="5,2" d="M404.47,-178C455.48,-178 527.62,-178 527.62,-178 527.62,-178 527.62,-205.97 527.62,-205.97"/>
<polygon fill="black" stroke="black" points="524.13,-205.97 527.62,-215.97 531.13,-205.97 524.13,-205.97"/>
</g>
<!-- HeaderComponent  -->
<g id="node8" class="node">
<title>HeaderComponent </title>
<polygon fill="#fb8072" stroke="black" points="485.74,-252 360.26,-252 360.26,-216 485.74,-216 485.74,-252"/>
<text text-anchor="middle" x="423" y="-229.8" font-family="Times,serif" font-size="14.00">HeaderComponent </text>
</g>
<!-- SharedModule&#45;&gt;HeaderComponent  -->
<g id="edge7" class="edge">
<title>SharedModule&#45;&gt;HeaderComponent </title>
<path fill="none" stroke="black" stroke-dasharray="5,2" d="M382.29,-187.11C382.29,-187.11 382.29,-205.99 382.29,-205.99"/>
<polygon fill="black" stroke="black" points="378.79,-205.99 382.29,-215.99 385.79,-205.99 378.79,-205.99"/>
</g>
<!-- MainComponent  -->
<g id="node9" class="node">
<title>MainComponent </title>
<polygon fill="#fb8072" stroke="black" points="342.38,-252 227.62,-252 227.62,-216 342.38,-216 342.38,-252"/>
<text text-anchor="middle" x="285" y="-229.8" font-family="Times,serif" font-size="14.00">MainComponent </text>
</g>
<!-- SharedModule&#45;&gt;MainComponent  -->
<g id="edge8" class="edge">
<title>SharedModule&#45;&gt;MainComponent </title>
<path fill="none" stroke="black" stroke-dasharray="5,2" d="M323.99,-187.11C323.99,-187.11 323.99,-205.99 323.99,-205.99"/>
<polygon fill="black" stroke="black" points="320.49,-205.99 323.99,-215.99 327.49,-205.99 320.49,-205.99"/>
</g>
<!-- SidebarComponent  -->
<g id="node10" class="node">
<title>SidebarComponent </title>
<polygon fill="#fb8072" stroke="black" points="209.6,-252 82.4,-252 82.4,-216 209.6,-216 209.6,-252"/>
<text text-anchor="middle" x="146" y="-229.8" font-family="Times,serif" font-size="14.00">SidebarComponent </text>
</g>
<!-- SharedModule&#45;&gt;SidebarComponent  -->
<g id="edge9" class="edge">
<title>SharedModule&#45;&gt;SidebarComponent </title>
<path fill="none" stroke="black" stroke-dasharray="5,2" d="M305.7,-178C256.35,-178 187.68,-178 187.68,-178 187.68,-178 187.68,-205.97 187.68,-205.97"/>
<polygon fill="black" stroke="black" points="184.18,-205.97 187.68,-215.97 191.18,-205.97 184.18,-205.97"/>
</g>
<!-- MaterialModule -->
<g id="node6" class="node">
<title>MaterialModule</title>
<polygon fill="#8dd3c7" stroke="black" points="682.47,-122 679.47,-126 658.47,-126 655.47,-122 575.53,-122 575.53,-86 682.47,-86 682.47,-122"/>
<text text-anchor="middle" x="629" y="-99.8" font-family="Times,serif" font-size="14.00">MaterialModule</text>
</g>
<!-- MaterialModule&#45;&gt;SharedModule -->
<g id="edge5" class="edge">
<title>MaterialModule&#45;&gt;SharedModule</title>
<path fill="none" stroke="black" d="M600.1,-122.11C600.1,-141.34 600.1,-169 600.1,-169 600.1,-169 414.31,-169 414.31,-169"/>
<polygon fill="black" stroke="black" points="414.31,-165.5 404.31,-169 414.31,-172.5 414.31,-165.5"/>
</g>
</g>
</svg>
