<?xml version="1.0" encoding="UTF-8" standalone="no"?>
<!DOCTYPE svg PUBLIC "-//W3C//DTD SVG 1.1//EN"
 "http://www.w3.org/Graphics/SVG/1.1/DTD/svg11.dtd">
<!-- Generated by graphviz version 2.47.0 (20210316.0004)
 -->
<!-- Title: dependencies Pages: 1 -->
<svg width="708pt" height="211pt"
 viewBox="0.00 0.00 708.00 211.00" xmlns="http://www.w3.org/2000/svg" xmlns:xlink="http://www.w3.org/1999/xlink">
<g id="graph0" class="graph" transform="scale(1 1) rotate(0) translate(4 207)">
<title>dependencies</title>
<polygon fill="white" stroke="transparent" points="-4,4 -4,-207 704,-207 704,4 -4,4"/>
<text text-anchor="start" x="329.01" y="-42.4" font-family="sans-serif" font-weight="bold" font-size="14.00">Legend</text>
<polygon fill="#ffffb3" stroke="transparent" points="116,-10 116,-30 136,-30 136,-10 116,-10"/>
<text text-anchor="start" x="139.63" y="-15.4" font-family="sans-serif" font-size="14.00"> &#160;Declarations</text>
<polygon fill="#8dd3c7" stroke="transparent" points="229,-10 229,-30 249,-30 249,-10 229,-10"/>
<text text-anchor="start" x="252.73" y="-15.4" font-family="sans-serif" font-size="14.00"> &#160;Module</text>
<polygon fill="#80b1d3" stroke="transparent" points="315,-10 315,-30 335,-30 335,-10 315,-10"/>
<text text-anchor="start" x="338.78" y="-15.4" font-family="sans-serif" font-size="14.00"> &#160;Bootstrap</text>
<polygon fill="#fdb462" stroke="transparent" points="412,-10 412,-30 432,-30 432,-10 412,-10"/>
<text text-anchor="start" x="435.67" y="-15.4" font-family="sans-serif" font-size="14.00"> &#160;Providers</text>
<polygon fill="#fb8072" stroke="transparent" points="508,-10 508,-30 528,-30 528,-10 508,-10"/>
<text text-anchor="start" x="531.73" y="-15.4" font-family="sans-serif" font-size="14.00"> &#160;Exports</text>
<g id="clust1" class="cluster">
<title>cluster_AuthModule</title>
<polygon fill="none" stroke="black" stroke-dasharray="1,5" points="8,-70 8,-195 692,-195 692,-70 8,-70"/>
</g>
<g id="clust2" class="cluster">
<title>cluster_AuthModule_declarations</title>
<polygon fill="none" stroke="black" points="414,-78 414,-130 684,-130 684,-78 414,-78"/>
</g>
<g id="clust5" class="cluster">
<title>cluster_AuthModule_imports</title>
<polygon fill="none" stroke="black" points="16,-78 16,-130 406,-130 406,-78 16,-78"/>
</g>
<!-- LoginComponent -->
<g id="node1" class="node">
<title>LoginComponent</title>
<polygon fill="#ffffb3" stroke="black" points="676.28,-122 561.72,-122 561.72,-86 676.28,-86 676.28,-122"/>
<text text-anchor="middle" x="619" y="-99.8" font-family="Times,serif" font-size="14.00">LoginComponent</text>
</g>
<!-- AuthModule -->
<g id="node3" class="node">
<title>AuthModule</title>
<polygon fill="#8dd3c7" stroke="black" points="375.55,-187 372.55,-191 351.55,-191 348.55,-187 288.45,-187 288.45,-151 375.55,-151 375.55,-187"/>
<text text-anchor="middle" x="332" y="-164.8" font-family="Times,serif" font-size="14.00">AuthModule</text>
</g>
<!-- LoginComponent&#45;&gt;AuthModule -->
<g id="edge1" class="edge">
<title>LoginComponent&#45;&gt;AuthModule</title>
<path fill="none" stroke="black" d="M619,-122.28C619,-143.32 619,-175 619,-175 619,-175 385.59,-175 385.59,-175"/>
<polygon fill="black" stroke="black" points="385.59,-171.5 375.59,-175 385.59,-178.5 385.59,-171.5"/>
</g>
<!-- SignupComponent -->
<g id="node2" class="node">
<title>SignupComponent</title>
<polygon fill="#ffffb3" stroke="black" points="543.51,-122 422.49,-122 422.49,-86 543.51,-86 543.51,-122"/>
<text text-anchor="middle" x="483" y="-99.8" font-family="Times,serif" font-size="14.00">SignupComponent</text>
</g>
<!-- SignupComponent&#45;&gt;AuthModule -->
<g id="edge2" class="edge">
<title>SignupComponent&#45;&gt;AuthModule</title>
<path fill="none" stroke="black" d="M483,-122.02C483,-139.37 483,-163 483,-163 483,-163 385.68,-163 385.68,-163"/>
<polygon fill="black" stroke="black" points="385.68,-159.5 375.68,-163 385.68,-166.5 385.68,-159.5"/>
</g>
<!-- AuthRoutingModule -->
<g id="node4" class="node">
<title>AuthRoutingModule</title>
<polygon fill="#8dd3c7" stroke="black" points="398.17,-122 395.17,-126 374.17,-126 371.17,-122 265.83,-122 265.83,-86 398.17,-86 398.17,-122"/>
<text text-anchor="middle" x="332" y="-99.8" font-family="Times,serif" font-size="14.00">AuthRoutingModule</text>
</g>
<!-- AuthRoutingModule&#45;&gt;AuthModule -->
<g id="edge3" class="edge">
<title>AuthRoutingModule&#45;&gt;AuthModule</title>
<path fill="none" stroke="black" d="M332,-122.11C332,-122.11 332,-140.99 332,-140.99"/>
<polygon fill="black" stroke="black" points="328.5,-140.99 332,-150.99 335.5,-140.99 328.5,-140.99"/>
</g>
<!-- MaterialModule -->
<g id="node5" class="node">
<title>MaterialModule</title>
<polygon fill="#8dd3c7" stroke="black" points="247.47,-122 244.47,-126 223.47,-126 220.47,-122 140.53,-122 140.53,-86 247.47,-86 247.47,-122"/>
<text text-anchor="middle" x="194" y="-99.8" font-family="Times,serif" font-size="14.00">MaterialModule</text>
</g>
<!-- MaterialModule&#45;&gt;AuthModule -->
<g id="edge4" class="edge">
<title>MaterialModule&#45;&gt;AuthModule</title>
<path fill="none" stroke="black" d="M194,-122.02C194,-139.37 194,-163 194,-163 194,-163 278.34,-163 278.34,-163"/>
<polygon fill="black" stroke="black" points="278.34,-166.5 288.34,-163 278.34,-159.5 278.34,-166.5"/>
</g>
<!-- SharedModule -->
<g id="node6" class="node">
<title>SharedModule</title>
<polygon fill="#8dd3c7" stroke="black" points="122.42,-122 119.42,-126 98.42,-126 95.42,-122 23.58,-122 23.58,-86 122.42,-86 122.42,-122"/>
<text text-anchor="middle" x="73" y="-99.8" font-family="Times,serif" font-size="14.00">SharedModule</text>
</g>
<!-- SharedModule&#45;&gt;AuthModule -->
<g id="edge5" class="edge">
<title>SharedModule&#45;&gt;AuthModule</title>
<path fill="none" stroke="black" d="M73,-122.28C73,-143.32 73,-175 73,-175 73,-175 278.36,-175 278.36,-175"/>
<polygon fill="black" stroke="black" points="278.36,-178.5 288.36,-175 278.36,-171.5 278.36,-178.5"/>
</g>
</g>
</svg>
