<?xml version="1.0" encoding="UTF-8" standalone="no"?>
<!DOCTYPE svg PUBLIC "-//W3C//DTD SVG 1.1//EN"
 "http://www.w3.org/Graphics/SVG/1.1/DTD/svg11.dtd">
<!-- Generated by graphviz version 2.47.0 (20210316.0004)
 -->
<!-- Title: dependencies Pages: 1 -->
<svg width="737pt" height="211pt"
 viewBox="0.00 0.00 737.00 211.00" xmlns="http://www.w3.org/2000/svg" xmlns:xlink="http://www.w3.org/1999/xlink">
<g id="graph0" class="graph" transform="scale(1 1) rotate(0) translate(4 207)">
<title>dependencies</title>
<polygon fill="white" stroke="transparent" points="-4,4 -4,-207 733,-207 733,4 -4,4"/>
<text text-anchor="start" x="343.51" y="-42.4" font-family="sans-serif" font-weight="bold" font-size="14.00">Legend</text>
<polygon fill="#ffffb3" stroke="transparent" points="130.5,-10 130.5,-30 150.5,-30 150.5,-10 130.5,-10"/>
<text text-anchor="start" x="154.13" y="-15.4" font-family="sans-serif" font-size="14.00"> &#160;Declarations</text>
<polygon fill="#8dd3c7" stroke="transparent" points="243.5,-10 243.5,-30 263.5,-30 263.5,-10 243.5,-10"/>
<text text-anchor="start" x="267.23" y="-15.4" font-family="sans-serif" font-size="14.00"> &#160;Module</text>
<polygon fill="#80b1d3" stroke="transparent" points="329.5,-10 329.5,-30 349.5,-30 349.5,-10 329.5,-10"/>
<text text-anchor="start" x="353.28" y="-15.4" font-family="sans-serif" font-size="14.00"> &#160;Bootstrap</text>
<polygon fill="#fdb462" stroke="transparent" points="426.5,-10 426.5,-30 446.5,-30 446.5,-10 426.5,-10"/>
<text text-anchor="start" x="450.17" y="-15.4" font-family="sans-serif" font-size="14.00"> &#160;Providers</text>
<polygon fill="#fb8072" stroke="transparent" points="522.5,-10 522.5,-30 542.5,-30 542.5,-10 522.5,-10"/>
<text text-anchor="start" x="546.23" y="-15.4" font-family="sans-serif" font-size="14.00"> &#160;Exports</text>
<g id="clust1" class="cluster">
<title>cluster_WorldModule</title>
<polygon fill="none" stroke="black" stroke-dasharray="1,5" points="8,-70 8,-195 721,-195 721,-70 8,-70"/>
</g>
<g id="clust5" class="cluster">
<title>cluster_WorldModule_imports</title>
<polygon fill="none" stroke="black" points="316,-78 316,-130 713,-130 713,-78 316,-78"/>
</g>
<g id="clust2" class="cluster">
<title>cluster_WorldModule_declarations</title>
<polygon fill="none" stroke="black" points="16,-78 16,-130 308,-130 308,-78 16,-78"/>
</g>
<!-- TableComponent -->
<g id="node1" class="node">
<title>TableComponent</title>
<polygon fill="#ffffb3" stroke="black" points="299.7,-122 186.3,-122 186.3,-86 299.7,-86 299.7,-122"/>
<text text-anchor="middle" x="243" y="-99.8" font-family="Times,serif" font-size="14.00">TableComponent</text>
</g>
<!-- WorldModule -->
<g id="node3" class="node">
<title>WorldModule</title>
<polygon fill="#8dd3c7" stroke="black" points="441.82,-187 438.82,-191 417.82,-191 414.82,-187 346.18,-187 346.18,-151 441.82,-151 441.82,-187"/>
<text text-anchor="middle" x="394" y="-164.8" font-family="Times,serif" font-size="14.00">WorldModule</text>
</g>
<!-- TableComponent&#45;&gt;WorldModule -->
<g id="edge1" class="edge">
<title>TableComponent&#45;&gt;WorldModule</title>
<path fill="none" stroke="black" d="M243,-122.02C243,-139.37 243,-163 243,-163 243,-163 336.22,-163 336.22,-163"/>
<polygon fill="black" stroke="black" points="336.22,-166.5 346.22,-163 336.22,-159.5 336.22,-166.5"/>
</g>
<!-- WorldPageComponent -->
<g id="node2" class="node">
<title>WorldPageComponent</title>
<polygon fill="#ffffb3" stroke="black" points="168.31,-122 23.69,-122 23.69,-86 168.31,-86 168.31,-122"/>
<text text-anchor="middle" x="96" y="-99.8" font-family="Times,serif" font-size="14.00">WorldPageComponent</text>
</g>
<!-- WorldPageComponent&#45;&gt;WorldModule -->
<g id="edge2" class="edge">
<title>WorldPageComponent&#45;&gt;WorldModule</title>
<path fill="none" stroke="black" d="M96,-122.28C96,-143.32 96,-175 96,-175 96,-175 336.12,-175 336.12,-175"/>
<polygon fill="black" stroke="black" points="336.12,-178.5 346.12,-175 336.12,-171.5 336.12,-178.5"/>
</g>
<!-- MaterialModule -->
<g id="node4" class="node">
<title>MaterialModule</title>
<polygon fill="#8dd3c7" stroke="black" points="705.47,-122 702.47,-126 681.47,-126 678.47,-122 598.53,-122 598.53,-86 705.47,-86 705.47,-122"/>
<text text-anchor="middle" x="652" y="-99.8" font-family="Times,serif" font-size="14.00">MaterialModule</text>
</g>
<!-- MaterialModule&#45;&gt;WorldModule -->
<g id="edge3" class="edge">
<title>MaterialModule&#45;&gt;WorldModule</title>
<path fill="none" stroke="black" d="M652,-122.28C652,-143.32 652,-175 652,-175 652,-175 451.92,-175 451.92,-175"/>
<polygon fill="black" stroke="black" points="451.92,-171.5 441.92,-175 451.92,-178.5 451.92,-171.5"/>
</g>
<!-- SharedModule -->
<g id="node5" class="node">
<title>SharedModule</title>
<polygon fill="#8dd3c7" stroke="black" points="580.42,-122 577.42,-126 556.42,-126 553.42,-122 481.58,-122 481.58,-86 580.42,-86 580.42,-122"/>
<text text-anchor="middle" x="531" y="-99.8" font-family="Times,serif" font-size="14.00">SharedModule</text>
</g>
<!-- SharedModule&#45;&gt;WorldModule -->
<g id="edge4" class="edge">
<title>SharedModule&#45;&gt;WorldModule</title>
<path fill="none" stroke="black" d="M531,-122.02C531,-139.37 531,-163 531,-163 531,-163 451.92,-163 451.92,-163"/>
<polygon fill="black" stroke="black" points="451.92,-159.5 441.92,-163 451.92,-166.5 451.92,-159.5"/>
</g>
<!-- WorldRoutingModule -->
<g id="node6" class="node">
<title>WorldRoutingModule</title>
<polygon fill="#8dd3c7" stroke="black" points="464.43,-122 461.43,-126 440.43,-126 437.43,-122 323.57,-122 323.57,-86 464.43,-86 464.43,-122"/>
<text text-anchor="middle" x="394" y="-99.8" font-family="Times,serif" font-size="14.00">WorldRoutingModule</text>
</g>
<!-- WorldRoutingModule&#45;&gt;WorldModule -->
<g id="edge5" class="edge">
<title>WorldRoutingModule&#45;&gt;WorldModule</title>
<path fill="none" stroke="black" d="M394,-122.11C394,-122.11 394,-140.99 394,-140.99"/>
<polygon fill="black" stroke="black" points="390.5,-140.99 394,-150.99 397.5,-140.99 390.5,-140.99"/>
</g>
</g>
</svg>
