<?xml version="1.0" encoding="UTF-8" standalone="no"?>
<!DOCTYPE svg PUBLIC "-//W3C//DTD SVG 1.1//EN"
 "http://www.w3.org/Graphics/SVG/1.1/DTD/svg11.dtd">
<!-- Generated by graphviz version 2.47.0 (20210316.0004)
 -->
<!-- Title: dependencies Pages: 1 -->
<svg width="605pt" height="211pt"
 viewBox="0.00 0.00 605.00 211.00" xmlns="http://www.w3.org/2000/svg" xmlns:xlink="http://www.w3.org/1999/xlink">
<g id="graph0" class="graph" transform="scale(1 1) rotate(0) translate(4 207)">
<title>dependencies</title>
<polygon fill="white" stroke="transparent" points="-4,4 -4,-207 601,-207 601,4 -4,4"/>
<text text-anchor="start" x="277.51" y="-42.4" font-family="sans-serif" font-weight="bold" font-size="14.00">Legend</text>
<polygon fill="#ffffb3" stroke="transparent" points="64.5,-10 64.5,-30 84.5,-30 84.5,-10 64.5,-10"/>
<text text-anchor="start" x="88.13" y="-15.4" font-family="sans-serif" font-size="14.00"> &#160;Declarations</text>
<polygon fill="#8dd3c7" stroke="transparent" points="177.5,-10 177.5,-30 197.5,-30 197.5,-10 177.5,-10"/>
<text text-anchor="start" x="201.23" y="-15.4" font-family="sans-serif" font-size="14.00"> &#160;Module</text>
<polygon fill="#80b1d3" stroke="transparent" points="263.5,-10 263.5,-30 283.5,-30 283.5,-10 263.5,-10"/>
<text text-anchor="start" x="287.28" y="-15.4" font-family="sans-serif" font-size="14.00"> &#160;Bootstrap</text>
<polygon fill="#fdb462" stroke="transparent" points="360.5,-10 360.5,-30 380.5,-30 380.5,-10 360.5,-10"/>
<text text-anchor="start" x="384.17" y="-15.4" font-family="sans-serif" font-size="14.00"> &#160;Providers</text>
<polygon fill="#fb8072" stroke="transparent" points="456.5,-10 456.5,-30 476.5,-30 476.5,-10 456.5,-10"/>
<text text-anchor="start" x="480.23" y="-15.4" font-family="sans-serif" font-size="14.00"> &#160;Exports</text>
<g id="clust1" class="cluster">
<title>cluster_WorldModule</title>
<polygon fill="none" stroke="black" stroke-dasharray="1,5" points="8,-70 8,-195 589,-195 589,-70 8,-70"/>
</g>
<g id="clust2" class="cluster">
<title>cluster_WorldModule_declarations</title>
<polygon fill="none" stroke="black" points="421,-78 421,-130 581,-130 581,-78 421,-78"/>
</g>
<g id="clust4" class="cluster">
<title>cluster_WorldModule_imports</title>
<polygon fill="none" stroke="black" points="16,-78 16,-130 413,-130 413,-78 16,-78"/>
</g>
<!-- WorldPageComponent -->
<g id="node1" class="node">
<title>WorldPageComponent</title>
<polygon fill="#ffffb3" stroke="black" points="573.31,-122 428.69,-122 428.69,-86 573.31,-86 573.31,-122"/>
<text text-anchor="middle" x="501" y="-99.8" font-family="Times,serif" font-size="14.00">WorldPageComponent</text>
</g>
<!-- WorldModule -->
<g id="node2" class="node">
<title>WorldModule</title>
<polygon fill="#8dd3c7" stroke="black" points="338.82,-187 335.82,-191 314.82,-191 311.82,-187 243.18,-187 243.18,-151 338.82,-151 338.82,-187"/>
<text text-anchor="middle" x="291" y="-164.8" font-family="Times,serif" font-size="14.00">WorldModule</text>
</g>
<!-- WorldPageComponent&#45;&gt;WorldModule -->
<g id="edge1" class="edge">
<title>WorldPageComponent&#45;&gt;WorldModule</title>
<path fill="none" stroke="black" d="M501,-122.11C501,-141.34 501,-169 501,-169 501,-169 348.92,-169 348.92,-169"/>
<polygon fill="black" stroke="black" points="348.92,-165.5 338.92,-169 348.91,-172.5 348.92,-165.5"/>
</g>
<!-- MaterialModule -->
<g id="node3" class="node">
<title>MaterialModule</title>
<polygon fill="#8dd3c7" stroke="black" points="405.47,-122 402.47,-126 381.47,-126 378.47,-122 298.53,-122 298.53,-86 405.47,-86 405.47,-122"/>
<text text-anchor="middle" x="352" y="-99.8" font-family="Times,serif" font-size="14.00">MaterialModule</text>
</g>
<!-- MaterialModule&#45;&gt;WorldModule -->
<g id="edge2" class="edge">
<title>MaterialModule&#45;&gt;WorldModule</title>
<path fill="none" stroke="black" d="M318.59,-122.11C318.59,-122.11 318.59,-140.99 318.59,-140.99"/>
<polygon fill="black" stroke="black" points="315.09,-140.99 318.59,-150.99 322.09,-140.99 315.09,-140.99"/>
</g>
<!-- SharedModule -->
<g id="node4" class="node">
<title>SharedModule</title>
<polygon fill="#8dd3c7" stroke="black" points="280.42,-122 277.42,-126 256.42,-126 253.42,-122 181.58,-122 181.58,-86 280.42,-86 280.42,-122"/>
<text text-anchor="middle" x="231" y="-99.8" font-family="Times,serif" font-size="14.00">SharedModule</text>
</g>
<!-- SharedModule&#45;&gt;WorldModule -->
<g id="edge3" class="edge">
<title>SharedModule&#45;&gt;WorldModule</title>
<path fill="none" stroke="black" d="M261.78,-122.11C261.78,-122.11 261.78,-140.99 261.78,-140.99"/>
<polygon fill="black" stroke="black" points="258.28,-140.99 261.78,-150.99 265.28,-140.99 258.28,-140.99"/>
</g>
<!-- WorldRoutingModule -->
<g id="node5" class="node">
<title>WorldRoutingModule</title>
<polygon fill="#8dd3c7" stroke="black" points="164.43,-122 161.43,-126 140.43,-126 137.43,-122 23.57,-122 23.57,-86 164.43,-86 164.43,-122"/>
<text text-anchor="middle" x="94" y="-99.8" font-family="Times,serif" font-size="14.00">WorldRoutingModule</text>
</g>
<!-- WorldRoutingModule&#45;&gt;WorldModule -->
<g id="edge4" class="edge">
<title>WorldRoutingModule&#45;&gt;WorldModule</title>
<path fill="none" stroke="black" d="M94,-122.11C94,-141.34 94,-169 94,-169 94,-169 233.31,-169 233.31,-169"/>
<polygon fill="black" stroke="black" points="233.31,-172.5 243.31,-169 233.31,-165.5 233.31,-172.5"/>
</g>
</g>
</svg>
