<?xml version="1.0" encoding="UTF-8" standalone="no"?>
<!DOCTYPE svg PUBLIC "-//W3C//DTD SVG 1.1//EN"
 "http://www.w3.org/Graphics/SVG/1.1/DTD/svg11.dtd">
<!-- Generated by graphviz version 2.47.0 (20210316.0004)
 -->
<!-- Title: dependencies Pages: 1 -->
<svg width="1116pt" height="211pt"
 viewBox="0.00 0.00 1116.00 211.00" xmlns="http://www.w3.org/2000/svg" xmlns:xlink="http://www.w3.org/1999/xlink">
<g id="graph0" class="graph" transform="scale(1 1) rotate(0) translate(4 207)">
<title>dependencies</title>
<polygon fill="white" stroke="transparent" points="-4,4 -4,-207 1112,-207 1112,4 -4,4"/>
<text text-anchor="start" x="533.01" y="-42.4" font-family="sans-serif" font-weight="bold" font-size="14.00">Legend</text>
<polygon fill="#ffffb3" stroke="transparent" points="320,-10 320,-30 340,-30 340,-10 320,-10"/>
<text text-anchor="start" x="343.63" y="-15.4" font-family="sans-serif" font-size="14.00"> &#160;Declarations</text>
<polygon fill="#8dd3c7" stroke="transparent" points="433,-10 433,-30 453,-30 453,-10 433,-10"/>
<text text-anchor="start" x="456.73" y="-15.4" font-family="sans-serif" font-size="14.00"> &#160;Module</text>
<polygon fill="#80b1d3" stroke="transparent" points="519,-10 519,-30 539,-30 539,-10 519,-10"/>
<text text-anchor="start" x="542.78" y="-15.4" font-family="sans-serif" font-size="14.00"> &#160;Bootstrap</text>
<polygon fill="#fdb462" stroke="transparent" points="616,-10 616,-30 636,-30 636,-10 616,-10"/>
<text text-anchor="start" x="639.67" y="-15.4" font-family="sans-serif" font-size="14.00"> &#160;Providers</text>
<polygon fill="#fb8072" stroke="transparent" points="712,-10 712,-30 732,-30 732,-10 712,-10"/>
<text text-anchor="start" x="735.73" y="-15.4" font-family="sans-serif" font-size="14.00"> &#160;Exports</text>
<g id="clust1" class="cluster">
<title>cluster_AdminModule</title>
<polygon fill="none" stroke="black" stroke-dasharray="1,5" points="8,-70 8,-195 1100,-195 1100,-70 8,-70"/>
</g>
<g id="clust2" class="cluster">
<title>cluster_AdminModule_declarations</title>
<polygon fill="none" stroke="black" points="425,-78 425,-130 1092,-130 1092,-78 425,-78"/>
</g>
<g id="clust7" class="cluster">
<title>cluster_AdminModule_imports</title>
<polygon fill="none" stroke="black" points="16,-78 16,-130 417,-130 417,-78 16,-78"/>
</g>
<!-- BoliviaDatasetsComponent -->
<g id="node1" class="node">
<title>BoliviaDatasetsComponent</title>
<polygon fill="#ffffb3" stroke="black" points="1083.98,-122 914.02,-122 914.02,-86 1083.98,-86 1083.98,-122"/>
<text text-anchor="middle" x="999" y="-99.8" font-family="Times,serif" font-size="14.00">BoliviaDatasetsComponent</text>
</g>
<!-- AdminModule -->
<g id="node5" class="node">
<title>AdminModule</title>
<polygon fill="#8dd3c7" stroke="black" points="554.44,-187 551.44,-191 530.44,-191 527.44,-187 455.56,-187 455.56,-151 554.44,-151 554.44,-187"/>
<text text-anchor="middle" x="505" y="-164.8" font-family="Times,serif" font-size="14.00">AdminModule</text>
</g>
<!-- BoliviaDatasetsComponent&#45;&gt;AdminModule -->
<g id="edge1" class="edge">
<title>BoliviaDatasetsComponent&#45;&gt;AdminModule</title>
<path fill="none" stroke="black" d="M999,-122.29C999,-144.21 999,-178 999,-178 999,-178 564.63,-178 564.63,-178"/>
<polygon fill="black" stroke="black" points="564.63,-174.5 554.63,-178 564.63,-181.5 564.63,-174.5"/>
</g>
<!-- DatasetsComponent -->
<g id="node2" class="node">
<title>DatasetsComponent</title>
<polygon fill="#ffffb3" stroke="black" points="896.25,-122 767.75,-122 767.75,-86 896.25,-86 896.25,-122"/>
<text text-anchor="middle" x="832" y="-99.8" font-family="Times,serif" font-size="14.00">DatasetsComponent</text>
</g>
<!-- DatasetsComponent&#45;&gt;AdminModule -->
<g id="edge2" class="edge">
<title>DatasetsComponent&#45;&gt;AdminModule</title>
<path fill="none" stroke="black" d="M832,-122.11C832,-141.34 832,-169 832,-169 832,-169 564.31,-169 564.31,-169"/>
<polygon fill="black" stroke="black" points="564.31,-165.5 554.31,-169 564.31,-172.5 564.31,-165.5"/>
</g>
<!-- HomeAdminComponent -->
<g id="node3" class="node">
<title>HomeAdminComponent</title>
<polygon fill="#ffffb3" stroke="black" points="749.43,-122 594.57,-122 594.57,-86 749.43,-86 749.43,-122"/>
<text text-anchor="middle" x="672" y="-99.8" font-family="Times,serif" font-size="14.00">HomeAdminComponent</text>
</g>
<!-- HomeAdminComponent&#45;&gt;AdminModule -->
<g id="edge3" class="edge">
<title>HomeAdminComponent&#45;&gt;AdminModule</title>
<path fill="none" stroke="black" d="M672,-122.03C672,-138.4 672,-160 672,-160 672,-160 564.65,-160 564.65,-160"/>
<polygon fill="black" stroke="black" points="564.65,-156.5 554.65,-160 564.65,-163.5 564.65,-156.5"/>
</g>
<!-- UploadFileComponent -->
<g id="node4" class="node">
<title>UploadFileComponent</title>
<polygon fill="#ffffb3" stroke="black" points="577.32,-122 432.68,-122 432.68,-86 577.32,-86 577.32,-122"/>
<text text-anchor="middle" x="505" y="-99.8" font-family="Times,serif" font-size="14.00">UploadFileComponent</text>
</g>
<!-- UploadFileComponent&#45;&gt;AdminModule -->
<g id="edge4" class="edge">
<title>UploadFileComponent&#45;&gt;AdminModule</title>
<path fill="none" stroke="black" d="M505,-122.11C505,-122.11 505,-140.99 505,-140.99"/>
<polygon fill="black" stroke="black" points="501.5,-140.99 505,-150.99 508.5,-140.99 501.5,-140.99"/>
</g>
<!-- AdminRoutingModule -->
<g id="node6" class="node">
<title>AdminRoutingModule</title>
<polygon fill="#8dd3c7" stroke="black" points="408.56,-122 405.56,-126 384.56,-126 381.56,-122 265.44,-122 265.44,-86 408.56,-86 408.56,-122"/>
<text text-anchor="middle" x="337" y="-99.8" font-family="Times,serif" font-size="14.00">AdminRoutingModule</text>
</g>
<!-- AdminRoutingModule&#45;&gt;AdminModule -->
<g id="edge5" class="edge">
<title>AdminRoutingModule&#45;&gt;AdminModule</title>
<path fill="none" stroke="black" d="M337,-122.03C337,-138.4 337,-160 337,-160 337,-160 445.5,-160 445.5,-160"/>
<polygon fill="black" stroke="black" points="445.5,-163.5 455.5,-160 445.5,-156.5 445.5,-163.5"/>
</g>
<!-- MaterialModule -->
<g id="node7" class="node">
<title>MaterialModule</title>
<polygon fill="#8dd3c7" stroke="black" points="247.47,-122 244.47,-126 223.47,-126 220.47,-122 140.53,-122 140.53,-86 247.47,-86 247.47,-122"/>
<text text-anchor="middle" x="194" y="-99.8" font-family="Times,serif" font-size="14.00">MaterialModule</text>
</g>
<!-- MaterialModule&#45;&gt;AdminModule -->
<g id="edge6" class="edge">
<title>MaterialModule&#45;&gt;AdminModule</title>
<path fill="none" stroke="black" d="M194,-122.11C194,-141.34 194,-169 194,-169 194,-169 445.72,-169 445.72,-169"/>
<polygon fill="black" stroke="black" points="445.72,-172.5 455.72,-169 445.72,-165.5 445.72,-172.5"/>
</g>
<!-- SharedModule -->
<g id="node8" class="node">
<title>SharedModule</title>
<polygon fill="#8dd3c7" stroke="black" points="122.42,-122 119.42,-126 98.42,-126 95.42,-122 23.58,-122 23.58,-86 122.42,-86 122.42,-122"/>
<text text-anchor="middle" x="73" y="-99.8" font-family="Times,serif" font-size="14.00">SharedModule</text>
</g>
<!-- SharedModule&#45;&gt;AdminModule -->
<g id="edge7" class="edge">
<title>SharedModule&#45;&gt;AdminModule</title>
<path fill="none" stroke="black" d="M73,-122.29C73,-144.21 73,-178 73,-178 73,-178 445.44,-178 445.44,-178"/>
<polygon fill="black" stroke="black" points="445.44,-181.5 455.44,-178 445.44,-174.5 445.44,-181.5"/>
</g>
</g>
</svg>
