<?xml version="1.0" encoding="UTF-8" standalone="no"?>
<!DOCTYPE svg PUBLIC "-//W3C//DTD SVG 1.1//EN"
 "http://www.w3.org/Graphics/SVG/1.1/DTD/svg11.dtd">
<!-- Generated by graphviz version 2.47.0 (20210316.0004)
 -->
<!-- Title: dependencies Pages: 1 -->
<svg width="928pt" height="211pt"
 viewBox="0.00 0.00 928.00 211.00" xmlns="http://www.w3.org/2000/svg" xmlns:xlink="http://www.w3.org/1999/xlink">
<g id="graph0" class="graph" transform="scale(1 1) rotate(0) translate(4 207)">
<title>dependencies</title>
<polygon fill="white" stroke="transparent" points="-4,4 -4,-207 924,-207 924,4 -4,4"/>
<text text-anchor="start" x="439.01" y="-42.4" font-family="sans-serif" font-weight="bold" font-size="14.00">Legend</text>
<polygon fill="#ffffb3" stroke="transparent" points="226,-10 226,-30 246,-30 246,-10 226,-10"/>
<text text-anchor="start" x="249.63" y="-15.4" font-family="sans-serif" font-size="14.00"> &#160;Declarations</text>
<polygon fill="#8dd3c7" stroke="transparent" points="339,-10 339,-30 359,-30 359,-10 339,-10"/>
<text text-anchor="start" x="362.73" y="-15.4" font-family="sans-serif" font-size="14.00"> &#160;Module</text>
<polygon fill="#80b1d3" stroke="transparent" points="425,-10 425,-30 445,-30 445,-10 425,-10"/>
<text text-anchor="start" x="448.78" y="-15.4" font-family="sans-serif" font-size="14.00"> &#160;Bootstrap</text>
<polygon fill="#fdb462" stroke="transparent" points="522,-10 522,-30 542,-30 542,-10 522,-10"/>
<text text-anchor="start" x="545.67" y="-15.4" font-family="sans-serif" font-size="14.00"> &#160;Providers</text>
<polygon fill="#fb8072" stroke="transparent" points="618,-10 618,-30 638,-30 638,-10 618,-10"/>
<text text-anchor="start" x="641.73" y="-15.4" font-family="sans-serif" font-size="14.00"> &#160;Exports</text>
<g id="clust1" class="cluster">
<title>cluster_AdminModule</title>
<polygon fill="none" stroke="black" stroke-dasharray="1,5" points="8,-70 8,-195 912,-195 912,-70 8,-70"/>
</g>
<g id="clust2" class="cluster">
<title>cluster_AdminModule_declarations</title>
<polygon fill="none" stroke="black" points="425,-78 425,-130 904,-130 904,-78 425,-78"/>
</g>
<g id="clust6" class="cluster">
<title>cluster_AdminModule_imports</title>
<polygon fill="none" stroke="black" points="16,-78 16,-130 417,-130 417,-78 16,-78"/>
</g>
<!-- DatasetsComponent -->
<g id="node1" class="node">
<title>DatasetsComponent</title>
<polygon fill="#ffffb3" stroke="black" points="896.25,-122 767.75,-122 767.75,-86 896.25,-86 896.25,-122"/>
<text text-anchor="middle" x="832" y="-99.8" font-family="Times,serif" font-size="14.00">DatasetsComponent</text>
</g>
<!-- AdminModule -->
<g id="node4" class="node">
<title>AdminModule</title>
<polygon fill="#8dd3c7" stroke="black" points="470.44,-187 467.44,-191 446.44,-191 443.44,-187 371.56,-187 371.56,-151 470.44,-151 470.44,-187"/>
<text text-anchor="middle" x="421" y="-164.8" font-family="Times,serif" font-size="14.00">AdminModule</text>
</g>
<!-- DatasetsComponent&#45;&gt;AdminModule -->
<g id="edge1" class="edge">
<title>DatasetsComponent&#45;&gt;AdminModule</title>
<path fill="none" stroke="black" d="M832,-122.28C832,-143.32 832,-175 832,-175 832,-175 480.58,-175 480.58,-175"/>
<polygon fill="black" stroke="black" points="480.58,-171.5 470.58,-175 480.58,-178.5 480.58,-171.5"/>
</g>
<!-- HomeAdminComponent -->
<g id="node2" class="node">
<title>HomeAdminComponent</title>
<polygon fill="#ffffb3" stroke="black" points="749.43,-122 594.57,-122 594.57,-86 749.43,-86 749.43,-122"/>
<text text-anchor="middle" x="672" y="-99.8" font-family="Times,serif" font-size="14.00">HomeAdminComponent</text>
</g>
<!-- HomeAdminComponent&#45;&gt;AdminModule -->
<g id="edge2" class="edge">
<title>HomeAdminComponent&#45;&gt;AdminModule</title>
<path fill="none" stroke="black" d="M672,-122.02C672,-139.37 672,-163 672,-163 672,-163 480.29,-163 480.29,-163"/>
<polygon fill="black" stroke="black" points="480.29,-159.5 470.29,-163 480.29,-166.5 480.29,-159.5"/>
</g>
<!-- UploadFileComponent -->
<g id="node3" class="node">
<title>UploadFileComponent</title>
<polygon fill="#ffffb3" stroke="black" points="577.32,-122 432.68,-122 432.68,-86 577.32,-86 577.32,-122"/>
<text text-anchor="middle" x="505" y="-99.8" font-family="Times,serif" font-size="14.00">UploadFileComponent</text>
</g>
<!-- UploadFileComponent&#45;&gt;AdminModule -->
<g id="edge3" class="edge">
<title>UploadFileComponent&#45;&gt;AdminModule</title>
<path fill="none" stroke="black" d="M451.53,-122.11C451.53,-122.11 451.53,-140.99 451.53,-140.99"/>
<polygon fill="black" stroke="black" points="448.03,-140.99 451.53,-150.99 455.03,-140.99 448.03,-140.99"/>
</g>
<!-- AdminRoutingModule -->
<g id="node5" class="node">
<title>AdminRoutingModule</title>
<polygon fill="#8dd3c7" stroke="black" points="408.56,-122 405.56,-126 384.56,-126 381.56,-122 265.44,-122 265.44,-86 408.56,-86 408.56,-122"/>
<text text-anchor="middle" x="337" y="-99.8" font-family="Times,serif" font-size="14.00">AdminRoutingModule</text>
</g>
<!-- AdminRoutingModule&#45;&gt;AdminModule -->
<g id="edge4" class="edge">
<title>AdminRoutingModule&#45;&gt;AdminModule</title>
<path fill="none" stroke="black" d="M390.28,-122.11C390.28,-122.11 390.28,-140.99 390.28,-140.99"/>
<polygon fill="black" stroke="black" points="386.78,-140.99 390.28,-150.99 393.78,-140.99 386.78,-140.99"/>
</g>
<!-- MaterialModule -->
<g id="node6" class="node">
<title>MaterialModule</title>
<polygon fill="#8dd3c7" stroke="black" points="247.47,-122 244.47,-126 223.47,-126 220.47,-122 140.53,-122 140.53,-86 247.47,-86 247.47,-122"/>
<text text-anchor="middle" x="194" y="-99.8" font-family="Times,serif" font-size="14.00">MaterialModule</text>
</g>
<!-- MaterialModule&#45;&gt;AdminModule -->
<g id="edge5" class="edge">
<title>MaterialModule&#45;&gt;AdminModule</title>
<path fill="none" stroke="black" d="M194,-122.02C194,-139.37 194,-163 194,-163 194,-163 361.74,-163 361.74,-163"/>
<polygon fill="black" stroke="black" points="361.74,-166.5 371.74,-163 361.74,-159.5 361.74,-166.5"/>
</g>
<!-- SharedModule -->
<g id="node7" class="node">
<title>SharedModule</title>
<polygon fill="#8dd3c7" stroke="black" points="122.42,-122 119.42,-126 98.42,-126 95.42,-122 23.58,-122 23.58,-86 122.42,-86 122.42,-122"/>
<text text-anchor="middle" x="73" y="-99.8" font-family="Times,serif" font-size="14.00">SharedModule</text>
</g>
<!-- SharedModule&#45;&gt;AdminModule -->
<g id="edge6" class="edge">
<title>SharedModule&#45;&gt;AdminModule</title>
<path fill="none" stroke="black" d="M73,-122.28C73,-143.32 73,-175 73,-175 73,-175 361.51,-175 361.51,-175"/>
<polygon fill="black" stroke="black" points="361.51,-178.5 371.51,-175 361.51,-171.5 361.51,-178.5"/>
</g>
</g>
</svg>
