<?xml version="1.0" encoding="UTF-8" standalone="no"?>
<!DOCTYPE svg PUBLIC "-//W3C//DTD SVG 1.1//EN"
 "http://www.w3.org/Graphics/SVG/1.1/DTD/svg11.dtd">
<!-- Generated by graphviz version 2.47.0 (20210316.0004)
 -->
<!-- Title: dependencies Pages: 1 -->
<svg width="960pt" height="211pt"
 viewBox="0.00 0.00 960.00 211.00" xmlns="http://www.w3.org/2000/svg" xmlns:xlink="http://www.w3.org/1999/xlink">
<g id="graph0" class="graph" transform="scale(1 1) rotate(0) translate(4 207)">
<title>dependencies</title>
<polygon fill="white" stroke="transparent" points="-4,4 -4,-207 956,-207 956,4 -4,4"/>
<text text-anchor="start" x="455.01" y="-42.4" font-family="sans-serif" font-weight="bold" font-size="14.00">Legend</text>
<polygon fill="#ffffb3" stroke="transparent" points="242,-10 242,-30 262,-30 262,-10 242,-10"/>
<text text-anchor="start" x="265.63" y="-15.4" font-family="sans-serif" font-size="14.00"> &#160;Declarations</text>
<polygon fill="#8dd3c7" stroke="transparent" points="355,-10 355,-30 375,-30 375,-10 355,-10"/>
<text text-anchor="start" x="378.73" y="-15.4" font-family="sans-serif" font-size="14.00"> &#160;Module</text>
<polygon fill="#80b1d3" stroke="transparent" points="441,-10 441,-30 461,-30 461,-10 441,-10"/>
<text text-anchor="start" x="464.78" y="-15.4" font-family="sans-serif" font-size="14.00"> &#160;Bootstrap</text>
<polygon fill="#fdb462" stroke="transparent" points="538,-10 538,-30 558,-30 558,-10 538,-10"/>
<text text-anchor="start" x="561.67" y="-15.4" font-family="sans-serif" font-size="14.00"> &#160;Providers</text>
<polygon fill="#fb8072" stroke="transparent" points="634,-10 634,-30 654,-30 654,-10 634,-10"/>
<text text-anchor="start" x="657.73" y="-15.4" font-family="sans-serif" font-size="14.00"> &#160;Exports</text>
<g id="clust1" class="cluster">
<title>cluster_HomeModule</title>
<polygon fill="none" stroke="black" stroke-dasharray="1,5" points="8,-70 8,-195 944,-195 944,-70 8,-70"/>
</g>
<g id="clust6" class="cluster">
<title>cluster_HomeModule_imports</title>
<polygon fill="none" stroke="black" points="540,-78 540,-130 936,-130 936,-78 540,-78"/>
</g>
<g id="clust2" class="cluster">
<title>cluster_HomeModule_declarations</title>
<polygon fill="none" stroke="black" points="16,-78 16,-130 532,-130 532,-78 16,-78"/>
</g>
<!-- HomeComponent -->
<g id="node1" class="node">
<title>HomeComponent</title>
<polygon fill="#ffffb3" stroke="black" points="523.55,-122 408.45,-122 408.45,-86 523.55,-86 523.55,-122"/>
<text text-anchor="middle" x="466" y="-99.8" font-family="Times,serif" font-size="14.00">HomeComponent</text>
</g>
<!-- HomeModule -->
<g id="node4" class="node">
<title>HomeModule</title>
<polygon fill="#8dd3c7" stroke="black" points="577.76,-187 574.76,-191 553.76,-191 550.76,-187 484.24,-187 484.24,-151 577.76,-151 577.76,-187"/>
<text text-anchor="middle" x="531" y="-164.8" font-family="Times,serif" font-size="14.00">HomeModule</text>
</g>
<!-- HomeComponent&#45;&gt;HomeModule -->
<g id="edge1" class="edge">
<title>HomeComponent&#45;&gt;HomeModule</title>
<path fill="none" stroke="black" d="M503.95,-122.11C503.95,-122.11 503.95,-140.99 503.95,-140.99"/>
<polygon fill="black" stroke="black" points="500.45,-140.99 503.95,-150.99 507.45,-140.99 500.45,-140.99"/>
</g>
<!-- InfvaccinationComponent -->
<g id="node2" class="node">
<title>InfvaccinationComponent</title>
<polygon fill="#ffffb3" stroke="black" points="390.18,-122 227.82,-122 227.82,-86 390.18,-86 390.18,-122"/>
<text text-anchor="middle" x="309" y="-99.8" font-family="Times,serif" font-size="14.00">InfvaccinationComponent</text>
</g>
<!-- InfvaccinationComponent&#45;&gt;HomeModule -->
<g id="edge2" class="edge">
<title>InfvaccinationComponent&#45;&gt;HomeModule</title>
<path fill="none" stroke="black" d="M309,-122.02C309,-139.37 309,-163 309,-163 309,-163 474.19,-163 474.19,-163"/>
<polygon fill="black" stroke="black" points="474.19,-166.5 484.19,-163 474.19,-159.5 474.19,-166.5"/>
</g>
<!-- RecommendationsComponent -->
<g id="node3" class="node">
<title>RecommendationsComponent</title>
<polygon fill="#ffffb3" stroke="black" points="209.53,-122 24.47,-122 24.47,-86 209.53,-86 209.53,-122"/>
<text text-anchor="middle" x="117" y="-99.8" font-family="Times,serif" font-size="14.00">RecommendationsComponent</text>
</g>
<!-- RecommendationsComponent&#45;&gt;HomeModule -->
<g id="edge3" class="edge">
<title>RecommendationsComponent&#45;&gt;HomeModule</title>
<path fill="none" stroke="black" d="M117,-122.28C117,-143.32 117,-175 117,-175 117,-175 473.91,-175 473.91,-175"/>
<polygon fill="black" stroke="black" points="473.91,-178.5 483.91,-175 473.91,-171.5 473.91,-178.5"/>
</g>
<!-- HomeRoutingModule -->
<g id="node5" class="node">
<title>HomeRoutingModule</title>
<polygon fill="#8dd3c7" stroke="black" points="928.38,-122 925.38,-126 904.38,-126 901.38,-122 789.62,-122 789.62,-86 928.38,-86 928.38,-122"/>
<text text-anchor="middle" x="859" y="-99.8" font-family="Times,serif" font-size="14.00">HomeRoutingModule</text>
</g>
<!-- HomeRoutingModule&#45;&gt;HomeModule -->
<g id="edge4" class="edge">
<title>HomeRoutingModule&#45;&gt;HomeModule</title>
<path fill="none" stroke="black" d="M859,-122.28C859,-143.32 859,-175 859,-175 859,-175 587.99,-175 587.99,-175"/>
<polygon fill="black" stroke="black" points="587.99,-171.5 577.99,-175 587.99,-178.5 587.99,-171.5"/>
</g>
<!-- MaterialModule -->
<g id="node6" class="node">
<title>MaterialModule</title>
<polygon fill="#8dd3c7" stroke="black" points="771.47,-122 768.47,-126 747.47,-126 744.47,-122 664.53,-122 664.53,-86 771.47,-86 771.47,-122"/>
<text text-anchor="middle" x="718" y="-99.8" font-family="Times,serif" font-size="14.00">MaterialModule</text>
</g>
<!-- MaterialModule&#45;&gt;HomeModule -->
<g id="edge5" class="edge">
<title>MaterialModule&#45;&gt;HomeModule</title>
<path fill="none" stroke="black" d="M718,-122.02C718,-139.37 718,-163 718,-163 718,-163 588.19,-163 588.19,-163"/>
<polygon fill="black" stroke="black" points="588.19,-159.5 578.19,-163 588.19,-166.5 588.19,-159.5"/>
</g>
<!-- SharedModule -->
<g id="node7" class="node">
<title>SharedModule</title>
<polygon fill="#8dd3c7" stroke="black" points="646.42,-122 643.42,-126 622.42,-126 619.42,-122 547.58,-122 547.58,-86 646.42,-86 646.42,-122"/>
<text text-anchor="middle" x="597" y="-99.8" font-family="Times,serif" font-size="14.00">SharedModule</text>
</g>
<!-- SharedModule&#45;&gt;HomeModule -->
<g id="edge6" class="edge">
<title>SharedModule&#45;&gt;HomeModule</title>
<path fill="none" stroke="black" d="M562.83,-122.11C562.83,-122.11 562.83,-140.99 562.83,-140.99"/>
<polygon fill="black" stroke="black" points="559.33,-140.99 562.83,-150.99 566.33,-140.99 559.33,-140.99"/>
</g>
</g>
</svg>
