<?xml version="1.0" encoding="UTF-8" standalone="no"?>
<!DOCTYPE svg PUBLIC "-//W3C//DTD SVG 1.1//EN"
 "http://www.w3.org/Graphics/SVG/1.1/DTD/svg11.dtd">
<!-- Generated by graphviz version 2.47.0 (20210316.0004)
 -->
<!-- Title: dependencies Pages: 1 -->
<svg width="504pt" height="284pt"
 viewBox="0.00 0.00 504.00 284.00" xmlns="http://www.w3.org/2000/svg" xmlns:xlink="http://www.w3.org/1999/xlink">
<g id="graph0" class="graph" transform="scale(1 1) rotate(0) translate(4 280)">
<title>dependencies</title>
<polygon fill="white" stroke="transparent" points="-4,4 -4,-280 500,-280 500,4 -4,4"/>
<text text-anchor="start" x="227.01" y="-42.4" font-family="sans-serif" font-weight="bold" font-size="14.00">Legend</text>
<polygon fill="#ffffb3" stroke="transparent" points="14,-10 14,-30 34,-30 34,-10 14,-10"/>
<text text-anchor="start" x="37.63" y="-15.4" font-family="sans-serif" font-size="14.00"> &#160;Declarations</text>
<polygon fill="#8dd3c7" stroke="transparent" points="127,-10 127,-30 147,-30 147,-10 127,-10"/>
<text text-anchor="start" x="150.73" y="-15.4" font-family="sans-serif" font-size="14.00"> &#160;Module</text>
<polygon fill="#80b1d3" stroke="transparent" points="213,-10 213,-30 233,-30 233,-10 213,-10"/>
<text text-anchor="start" x="236.78" y="-15.4" font-family="sans-serif" font-size="14.00"> &#160;Bootstrap</text>
<polygon fill="#fdb462" stroke="transparent" points="310,-10 310,-30 330,-30 330,-10 310,-10"/>
<text text-anchor="start" x="333.67" y="-15.4" font-family="sans-serif" font-size="14.00"> &#160;Providers</text>
<polygon fill="#fb8072" stroke="transparent" points="406,-10 406,-30 426,-30 426,-10 406,-10"/>
<text text-anchor="start" x="429.73" y="-15.4" font-family="sans-serif" font-size="14.00"> &#160;Exports</text>
<g id="clust1" class="cluster">
<title>cluster_AppModule</title>
<polygon fill="none" stroke="black" stroke-dasharray="1,5" points="44.5,-70 44.5,-268 451.5,-268 451.5,-70 44.5,-70"/>
</g>
<g id="clust6" class="cluster">
<title>cluster_AppModule_bootstrap</title>
<polygon fill="none" stroke="black" points="179.5,-208 179.5,-260 303.5,-260 303.5,-208 179.5,-208"/>
</g>
<g id="clust2" class="cluster">
<title>cluster_AppModule_declarations</title>
<polygon fill="none" stroke="black" points="321.5,-78 321.5,-130 443.5,-130 443.5,-78 321.5,-78"/>
</g>
<g id="clust4" class="cluster">
<title>cluster_AppModule_imports</title>
<polygon fill="none" stroke="black" points="52.5,-78 52.5,-130 313.5,-130 313.5,-78 52.5,-78"/>
</g>
<!-- AppComponent -->
<g id="node1" class="node">
<title>AppComponent</title>
<polygon fill="#ffffb3" stroke="black" points="435.44,-122 329.56,-122 329.56,-86 435.44,-86 435.44,-122"/>
<text text-anchor="middle" x="382.5" y="-99.8" font-family="Times,serif" font-size="14.00">AppComponent</text>
</g>
<!-- AppModule -->
<g id="node2" class="node">
<title>AppModule</title>
<polygon fill="#8dd3c7" stroke="black" points="283.16,-187 280.16,-191 259.16,-191 256.16,-187 199.84,-187 199.84,-151 283.16,-151 283.16,-187"/>
<text text-anchor="middle" x="241.5" y="-164.8" font-family="Times,serif" font-size="14.00">AppModule</text>
</g>
<!-- AppComponent&#45;&gt;AppModule -->
<g id="edge1" class="edge">
<title>AppComponent&#45;&gt;AppModule</title>
<path fill="none" stroke="black" d="M382.5,-122.11C382.5,-141.34 382.5,-169 382.5,-169 382.5,-169 293.42,-169 293.42,-169"/>
<polygon fill="black" stroke="black" points="293.42,-165.5 283.42,-169 293.42,-172.5 293.42,-165.5"/>
</g>
<!-- AppComponent  -->
<g id="node5" class="node">
<title>AppComponent </title>
<polygon fill="#80b1d3" stroke="black" points="295.94,-252 187.06,-252 187.06,-216 295.94,-216 295.94,-252"/>
<text text-anchor="middle" x="241.5" y="-229.8" font-family="Times,serif" font-size="14.00">AppComponent </text>
</g>
<!-- AppModule&#45;&gt;AppComponent  -->
<g id="edge4" class="edge">
<title>AppModule&#45;&gt;AppComponent </title>
<path fill="none" stroke="black" stroke-dasharray="1,5" d="M241.5,-187.11C241.5,-187.11 241.5,-205.99 241.5,-205.99"/>
<polygon fill="black" stroke="black" points="238,-205.99 241.5,-215.99 245,-205.99 238,-205.99"/>
</g>
<!-- AppRoutingModule -->
<g id="node3" class="node">
<title>AppRoutingModule</title>
<polygon fill="#8dd3c7" stroke="black" points="305.77,-122 302.77,-126 281.77,-126 278.77,-122 177.23,-122 177.23,-86 305.77,-86 305.77,-122"/>
<text text-anchor="middle" x="241.5" y="-99.8" font-family="Times,serif" font-size="14.00">AppRoutingModule</text>
</g>
<!-- AppRoutingModule&#45;&gt;AppModule -->
<g id="edge2" class="edge">
<title>AppRoutingModule&#45;&gt;AppModule</title>
<path fill="none" stroke="black" d="M241.5,-122.11C241.5,-122.11 241.5,-140.99 241.5,-140.99"/>
<polygon fill="black" stroke="black" points="238,-140.99 241.5,-150.99 245,-140.99 238,-140.99"/>
</g>
<!-- SharedModule -->
<g id="node4" class="node">
<title>SharedModule</title>
<polygon fill="#8dd3c7" stroke="black" points="158.92,-122 155.92,-126 134.92,-126 131.92,-122 60.08,-122 60.08,-86 158.92,-86 158.92,-122"/>
<text text-anchor="middle" x="109.5" y="-99.8" font-family="Times,serif" font-size="14.00">SharedModule</text>
</g>
<!-- SharedModule&#45;&gt;AppModule -->
<g id="edge3" class="edge">
<title>SharedModule&#45;&gt;AppModule</title>
<path fill="none" stroke="black" d="M109.5,-122.11C109.5,-141.34 109.5,-169 109.5,-169 109.5,-169 189.73,-169 189.73,-169"/>
<polygon fill="black" stroke="black" points="189.73,-172.5 199.73,-169 189.73,-165.5 189.73,-172.5"/>
</g>
</g>
</svg>
