<?xml version="1.0" encoding="UTF-8" standalone="no"?>
<!DOCTYPE svg PUBLIC "-//W3C//DTD SVG 1.1//EN"
 "http://www.w3.org/Graphics/SVG/1.1/DTD/svg11.dtd">
<!-- Generated by graphviz version 2.47.0 (20210316.0004)
 -->
<!-- Title: dependencies Pages: 1 -->
<svg width="5081pt" height="355pt"
 viewBox="0.00 0.00 5081.00 355.00" xmlns="http://www.w3.org/2000/svg" xmlns:xlink="http://www.w3.org/1999/xlink">
<g id="graph0" class="graph" transform="scale(1 1) rotate(0) translate(4 351)">
<title>dependencies</title>
<polygon fill="white" stroke="transparent" points="-4,4 -4,-351 5077,-351 5077,4 -4,4"/>
<text text-anchor="start" x="2515.51" y="-42.4" font-family="sans-serif" font-weight="bold" font-size="14.00">Legend</text>
<polygon fill="#ffffb3" stroke="transparent" points="2302.5,-10 2302.5,-30 2322.5,-30 2322.5,-10 2302.5,-10"/>
<text text-anchor="start" x="2326.13" y="-15.4" font-family="sans-serif" font-size="14.00"> &#160;Declarations</text>
<polygon fill="#8dd3c7" stroke="transparent" points="2415.5,-10 2415.5,-30 2435.5,-30 2435.5,-10 2415.5,-10"/>
<text text-anchor="start" x="2439.23" y="-15.4" font-family="sans-serif" font-size="14.00"> &#160;Module</text>
<polygon fill="#80b1d3" stroke="transparent" points="2501.5,-10 2501.5,-30 2521.5,-30 2521.5,-10 2501.5,-10"/>
<text text-anchor="start" x="2525.28" y="-15.4" font-family="sans-serif" font-size="14.00"> &#160;Bootstrap</text>
<polygon fill="#fdb462" stroke="transparent" points="2598.5,-10 2598.5,-30 2618.5,-30 2618.5,-10 2598.5,-10"/>
<text text-anchor="start" x="2622.17" y="-15.4" font-family="sans-serif" font-size="14.00"> &#160;Providers</text>
<polygon fill="#fb8072" stroke="transparent" points="2694.5,-10 2694.5,-30 2714.5,-30 2714.5,-10 2694.5,-10"/>
<text text-anchor="start" x="2718.23" y="-15.4" font-family="sans-serif" font-size="14.00"> &#160;Exports</text>
<g id="clust1" class="cluster">
<title>cluster_AdminModule</title>
<polygon fill="none" stroke="black" stroke-dasharray="1,5" points="772,-70 772,-263 1746,-263 1746,-70 772,-70"/>
</g>
<g id="clust2" class="cluster">
<title>cluster_AdminModule_declarations</title>
<polygon fill="none" stroke="black" points="780,-143 780,-195 1446,-195 1446,-143 780,-143"/>
</g>
<g id="clust7" class="cluster">
<title>cluster_AdminModule_imports</title>
<polygon fill="none" stroke="black" points="1454,-78 1454,-195 1738,-195 1738,-78 1454,-78"/>
</g>
<g id="clust17" class="cluster">
<title>cluster_AppModule</title>
<polygon fill="none" stroke="black" stroke-dasharray="1,5" points="8,-135 8,-339 298,-339 298,-135 8,-135"/>
</g>
<g id="clust18" class="cluster">
<title>cluster_AppModule_declarations</title>
<polygon fill="none" stroke="black" points="168,-143 168,-195 290,-195 290,-143 168,-143"/>
</g>
<g id="clust20" class="cluster">
<title>cluster_AppModule_imports</title>
<polygon fill="none" stroke="black" points="16,-143 16,-195 160,-195 160,-143 16,-143"/>
</g>
<g id="clust22" class="cluster">
<title>cluster_AppModule_bootstrap</title>
<polygon fill="none" stroke="black" points="166,-279 166,-331 290,-331 290,-279 166,-279"/>
</g>
<g id="clust30" class="cluster">
<title>cluster_AuthModule</title>
<polygon fill="none" stroke="black" stroke-dasharray="1,5" points="306,-135 306,-263 748,-263 748,-135 306,-135"/>
</g>
<g id="clust31" class="cluster">
<title>cluster_AuthModule_declarations</title>
<polygon fill="none" stroke="black" points="470,-143 470,-195 740,-195 740,-143 470,-143"/>
</g>
<g id="clust34" class="cluster">
<title>cluster_AuthModule_imports</title>
<polygon fill="none" stroke="black" points="314,-143 314,-195 462,-195 462,-143 314,-143"/>
</g>
<g id="clust44" class="cluster">
<title>cluster_BoliviaModule</title>
<polygon fill="none" stroke="black" stroke-dasharray="1,5" points="2888,-135 2888,-263 3971,-263 3971,-135 2888,-135"/>
</g>
<g id="clust45" class="cluster">
<title>cluster_BoliviaModule_declarations</title>
<polygon fill="none" stroke="black" points="3066,-143 3066,-195 3963,-195 3963,-143 3066,-143"/>
</g>
<g id="clust52" class="cluster">
<title>cluster_BoliviaModule_imports</title>
<polygon fill="none" stroke="black" points="2896,-143 2896,-195 3058,-195 3058,-143 2896,-143"/>
</g>
<g id="clust62" class="cluster">
<title>cluster_HomeModule</title>
<polygon fill="none" stroke="black" stroke-dasharray="1,5" points="4001,-135 4001,-263 4695,-263 4695,-135 4001,-135"/>
</g>
<g id="clust63" class="cluster">
<title>cluster_HomeModule_declarations</title>
<polygon fill="none" stroke="black" points="4171,-143 4171,-195 4687,-195 4687,-143 4171,-143"/>
</g>
<g id="clust67" class="cluster">
<title>cluster_HomeModule_imports</title>
<polygon fill="none" stroke="black" points="4009,-143 4009,-195 4163,-195 4163,-143 4009,-143"/>
</g>
<g id="clust83" class="cluster">
<title>cluster_SharedModule</title>
<polygon fill="none" stroke="black" stroke-dasharray="1,5" points="1754,-203 1754,-271 2880,-271 2880,-203 1754,-203"/>
</g>
<g id="clust84" class="cluster">
<title>cluster_SharedModule_declarations</title>
<polygon fill="none" stroke="black" points="2328,-211 2328,-263 2872,-263 2872,-211 2328,-211"/>
</g>
<g id="clust90" class="cluster">
<title>cluster_SharedModule_exports</title>
<polygon fill="none" stroke="black" points="1762,-211 1762,-263 2320,-263 2320,-211 1762,-211"/>
</g>
<g id="clust93" class="cluster">
<title>cluster_WorldModule</title>
<polygon fill="none" stroke="black" stroke-dasharray="1,5" points="4725,-135 4725,-263 5065,-263 5065,-135 4725,-135"/>
</g>
<g id="clust94" class="cluster">
<title>cluster_WorldModule_declarations</title>
<polygon fill="none" stroke="black" points="4897,-143 4897,-195 5057,-195 5057,-143 4897,-143"/>
</g>
<g id="clust96" class="cluster">
<title>cluster_WorldModule_imports</title>
<polygon fill="none" stroke="black" points="4733,-143 4733,-195 4889,-195 4889,-143 4733,-143"/>
</g>
<!-- BoliviaDatasetsComponent -->
<g id="node1" class="node">
<title>BoliviaDatasetsComponent</title>
<polygon fill="#ffffb3" stroke="black" points="1103.98,-187 934.02,-187 934.02,-151 1103.98,-151 1103.98,-187"/>
<text text-anchor="middle" x="1019" y="-164.8" font-family="Times,serif" font-size="14.00">BoliviaDatasetsComponent</text>
</g>
<!-- AdminModule -->
<g id="node5" class="node">
<title>AdminModule</title>
<polygon fill="#8dd3c7" stroke="black" points="1410.44,-255 1407.44,-259 1386.44,-259 1383.44,-255 1311.56,-255 1311.56,-219 1410.44,-219 1410.44,-255"/>
<text text-anchor="middle" x="1361" y="-232.8" font-family="Times,serif" font-size="14.00">AdminModule</text>
</g>
<!-- BoliviaDatasetsComponent&#45;&gt;AdminModule -->
<g id="edge1" class="edge">
<title>BoliviaDatasetsComponent&#45;&gt;AdminModule</title>
<path fill="none" stroke="black" d="M1019,-187.22C1019,-207.37 1019,-237 1019,-237 1019,-237 1301.64,-237 1301.64,-237"/>
<polygon fill="black" stroke="black" points="1301.64,-240.5 1311.64,-237 1301.64,-233.5 1301.64,-240.5"/>
</g>
<!-- DatasetsComponent -->
<g id="node2" class="node">
<title>DatasetsComponent</title>
<polygon fill="#ffffb3" stroke="black" points="916.25,-187 787.75,-187 787.75,-151 916.25,-151 916.25,-187"/>
<text text-anchor="middle" x="852" y="-164.8" font-family="Times,serif" font-size="14.00">DatasetsComponent</text>
</g>
<!-- DatasetsComponent&#45;&gt;AdminModule -->
<g id="edge2" class="edge">
<title>DatasetsComponent&#45;&gt;AdminModule</title>
<path fill="none" stroke="black" d="M852,-187.25C852,-210.02 852,-246 852,-246 852,-246 1301.73,-246 1301.73,-246"/>
<polygon fill="black" stroke="black" points="1301.73,-249.5 1311.73,-246 1301.73,-242.5 1301.73,-249.5"/>
</g>
<!-- HomeAdminComponent -->
<g id="node3" class="node">
<title>HomeAdminComponent</title>
<polygon fill="#ffffb3" stroke="black" points="1438.43,-187 1283.57,-187 1283.57,-151 1438.43,-151 1438.43,-187"/>
<text text-anchor="middle" x="1361" y="-164.8" font-family="Times,serif" font-size="14.00">HomeAdminComponent</text>
</g>
<!-- HomeAdminComponent&#45;&gt;AdminModule -->
<g id="edge3" class="edge">
<title>HomeAdminComponent&#45;&gt;AdminModule</title>
<path fill="none" stroke="black" d="M1361,-187.22C1361,-187.22 1361,-208.73 1361,-208.73"/>
<polygon fill="black" stroke="black" points="1357.5,-208.73 1361,-218.73 1364.5,-208.73 1357.5,-208.73"/>
</g>
<!-- UploadFileComponent -->
<g id="node4" class="node">
<title>UploadFileComponent</title>
<polygon fill="#ffffb3" stroke="black" points="1266.32,-187 1121.68,-187 1121.68,-151 1266.32,-151 1266.32,-187"/>
<text text-anchor="middle" x="1194" y="-164.8" font-family="Times,serif" font-size="14.00">UploadFileComponent</text>
</g>
<!-- UploadFileComponent&#45;&gt;AdminModule -->
<g id="edge4" class="edge">
<title>UploadFileComponent&#45;&gt;AdminModule</title>
<path fill="none" stroke="black" d="M1194,-187.02C1194,-204.37 1194,-228 1194,-228 1194,-228 1301.35,-228 1301.35,-228"/>
<polygon fill="black" stroke="black" points="1301.35,-231.5 1311.35,-228 1301.35,-224.5 1301.35,-231.5"/>
</g>
<!-- AdminRoutingModule -->
<g id="node6" class="node">
<title>AdminRoutingModule</title>
<polygon fill="#8dd3c7" stroke="black" points="1605.56,-122 1602.56,-126 1581.56,-126 1578.56,-122 1462.44,-122 1462.44,-86 1605.56,-86 1605.56,-122"/>
<text text-anchor="middle" x="1534" y="-99.8" font-family="Times,serif" font-size="14.00">AdminRoutingModule</text>
</g>
<!-- AdminRoutingModule&#45;&gt;AdminModule -->
<g id="edge5" class="edge">
<title>AdminRoutingModule&#45;&gt;AdminModule</title>
<path fill="none" stroke="black" d="M1534,-122.15C1534,-156.36 1534,-227 1534,-227 1534,-227 1420.57,-227 1420.57,-227"/>
<polygon fill="black" stroke="black" points="1420.57,-223.5 1410.57,-227 1420.57,-230.5 1420.57,-223.5"/>
</g>
<!-- MaterialModule -->
<g id="node7" class="node">
<title>MaterialModule</title>
<polygon fill="#8dd3c7" stroke="black" points="1730.47,-122 1727.47,-126 1706.47,-126 1703.47,-122 1623.53,-122 1623.53,-86 1730.47,-86 1730.47,-122"/>
<text text-anchor="middle" x="1677" y="-99.8" font-family="Times,serif" font-size="14.00">MaterialModule</text>
</g>
<!-- MaterialModule&#45;&gt;AdminModule -->
<g id="edge6" class="edge">
<title>MaterialModule&#45;&gt;AdminModule</title>
<path fill="none" stroke="black" d="M1629.03,-122.08C1629.03,-157.8 1629.03,-234 1629.03,-234 1629.03,-234 1420.47,-234 1420.47,-234"/>
<polygon fill="black" stroke="black" points="1420.47,-230.5 1410.47,-234 1420.47,-237.5 1420.47,-230.5"/>
</g>
<!-- SharedModule -->
<g id="node8" class="node">
<title>SharedModule</title>
<polygon fill="#8dd3c7" stroke="black" points="1730.42,-187 1727.42,-191 1706.42,-191 1703.42,-187 1631.58,-187 1631.58,-151 1730.42,-151 1730.42,-187"/>
<text text-anchor="middle" x="1681" y="-164.8" font-family="Times,serif" font-size="14.00">SharedModule</text>
</g>
<!-- MaterialModule&#45;&gt;SharedModule -->
<g id="edge36" class="edge">
<title>MaterialModule&#45;&gt;SharedModule</title>
<path fill="none" stroke="black" d="M1681,-122.11C1681,-122.11 1681,-140.99 1681,-140.99"/>
<polygon fill="black" stroke="black" points="1677.5,-140.99 1681,-150.99 1684.5,-140.99 1677.5,-140.99"/>
</g>
<!-- AuthModule -->
<g id="node15" class="node">
<title>AuthModule</title>
<polygon fill="#8dd3c7" stroke="black" points="718.55,-255 715.55,-259 694.55,-259 691.55,-255 631.45,-255 631.45,-219 718.55,-219 718.55,-255"/>
<text text-anchor="middle" x="675" y="-232.8" font-family="Times,serif" font-size="14.00">AuthModule</text>
</g>
<!-- MaterialModule&#45;&gt;AuthModule -->
<g id="edge15" class="edge">
<title>MaterialModule&#45;&gt;AuthModule</title>
<path fill="none" stroke="black" d="M1626.27,-122.29C1626.27,-152.37 1626.27,-209 1626.27,-209 1626.27,-209 675,-209 675,-209 675,-209 675,-209.98 675,-209.98"/>
<polygon fill="black" stroke="black" points="671.5,-208.79 675,-218.79 678.5,-208.79 671.5,-208.79"/>
</g>
<!-- BoliviaModule -->
<g id="node23" class="node">
<title>BoliviaModule</title>
<polygon fill="#8dd3c7" stroke="black" points="3329.27,-255 3326.27,-259 3305.27,-259 3302.27,-255 3228.73,-255 3228.73,-219 3329.27,-219 3329.27,-255"/>
<text text-anchor="middle" x="3279" y="-232.8" font-family="Times,serif" font-size="14.00">BoliviaModule</text>
</g>
<!-- MaterialModule&#45;&gt;BoliviaModule -->
<g id="edge24" class="edge">
<title>MaterialModule&#45;&gt;BoliviaModule</title>
<path fill="none" stroke="black" d="M1730.72,-113C1965.64,-113 2890.85,-113 2890.85,-113 2890.85,-113 2890.85,-241 2890.85,-241 2890.85,-241 3218.65,-241 3218.65,-241"/>
<polygon fill="black" stroke="black" points="3218.65,-244.5 3228.65,-241 3218.65,-237.5 3218.65,-244.5"/>
</g>
<!-- HomeModule -->
<g id="node28" class="node">
<title>HomeModule</title>
<polygon fill="#8dd3c7" stroke="black" points="4219.76,-255 4216.76,-259 4195.76,-259 4192.76,-255 4126.24,-255 4126.24,-219 4219.76,-219 4219.76,-255"/>
<text text-anchor="middle" x="4173" y="-232.8" font-family="Times,serif" font-size="14.00">HomeModule</text>
</g>
<!-- MaterialModule&#45;&gt;HomeModule -->
<g id="edge30" class="edge">
<title>MaterialModule&#45;&gt;HomeModule</title>
<path fill="none" stroke="black" d="M1730.74,-104C2093.27,-104 4167.17,-104 4167.17,-104 4167.17,-104 4167.17,-208.79 4167.17,-208.79"/>
<polygon fill="black" stroke="black" points="4163.67,-208.79 4167.17,-218.79 4170.67,-208.79 4163.67,-208.79"/>
</g>
<!-- WorldModule -->
<g id="node39" class="node">
<title>WorldModule</title>
<polygon fill="#8dd3c7" stroke="black" points="4843.82,-255 4840.82,-259 4819.82,-259 4816.82,-255 4748.18,-255 4748.18,-219 4843.82,-219 4843.82,-255"/>
<text text-anchor="middle" x="4796" y="-232.8" font-family="Times,serif" font-size="14.00">WorldModule</text>
</g>
<!-- MaterialModule&#45;&gt;WorldModule -->
<g id="edge42" class="edge">
<title>MaterialModule&#45;&gt;WorldModule</title>
<path fill="none" stroke="black" d="M1730.7,-95C2108.35,-95 4350.16,-95 4350.16,-95 4350.16,-95 4350.16,-228 4350.16,-228 4350.16,-228 4738.29,-228 4738.29,-228"/>
<polygon fill="black" stroke="black" points="4738.29,-231.5 4748.29,-228 4738.29,-224.5 4738.29,-231.5"/>
</g>
<!-- SharedModule&#45;&gt;AdminModule -->
<g id="edge7" class="edge">
<title>SharedModule&#45;&gt;AdminModule</title>
<path fill="none" stroke="black" d="M1702.09,-187.17C1702.09,-208.5 1702.09,-241 1702.09,-241 1702.09,-241 1420.23,-241 1420.23,-241"/>
<polygon fill="black" stroke="black" points="1420.23,-237.5 1410.23,-241 1420.23,-244.5 1420.23,-237.5"/>
</g>
<!-- AppModule -->
<g id="node10" class="node">
<title>AppModule</title>
<polygon fill="#8dd3c7" stroke="black" points="269.66,-255 266.66,-259 245.66,-259 242.66,-255 186.34,-255 186.34,-219 269.66,-219 269.66,-255"/>
<text text-anchor="middle" x="228" y="-232.8" font-family="Times,serif" font-size="14.00">AppModule</text>
</g>
<!-- SharedModule&#45;&gt;AppModule -->
<g id="edge10" class="edge">
<title>SharedModule&#45;&gt;AppModule</title>
<path fill="none" stroke="black" d="M1645.85,-187.19C1645.85,-195.28 1645.85,-203 1645.85,-203 1645.85,-203 241.94,-203 241.94,-203 241.94,-203 241.94,-208.81 241.94,-208.81"/>
<polygon fill="black" stroke="black" points="238.44,-208.81 241.94,-218.81 245.44,-208.81 238.44,-208.81"/>
</g>
<!-- SharedModule&#45;&gt;AuthModule -->
<g id="edge16" class="edge">
<title>SharedModule&#45;&gt;AuthModule</title>
<path fill="none" stroke="black" d="M1659.91,-187.04C1659.91,-199.56 1659.91,-214 1659.91,-214 1659.91,-214 696.89,-214 696.89,-214 696.89,-214 696.89,-214.49 696.89,-214.49"/>
<polygon fill="black" stroke="black" points="693.39,-208.88 696.89,-218.88 700.39,-208.88 693.39,-208.88"/>
</g>
<!-- SharedModule&#45;&gt;BoliviaModule -->
<g id="edge25" class="edge">
<title>SharedModule&#45;&gt;BoliviaModule</title>
<path fill="none" stroke="black" d="M1730.52,-155C1956.34,-155 2877.65,-155 2877.65,-155 2877.65,-155 2877.65,-248 2877.65,-248 2877.65,-248 3218.57,-248 3218.57,-248"/>
<polygon fill="black" stroke="black" points="3218.57,-251.5 3228.57,-248 3218.57,-244.5 3218.57,-251.5"/>
</g>
<!-- SharedModule&#45;&gt;HomeModule -->
<g id="edge31" class="edge">
<title>SharedModule&#45;&gt;HomeModule</title>
<path fill="none" stroke="black" d="M1673.97,-187.2C1673.97,-193.03 1673.97,-198 1673.97,-198 1673.97,-198 4135.89,-198 4135.89,-198 4135.89,-198 4135.89,-208.87 4135.89,-208.87"/>
<polygon fill="black" stroke="black" points="4132.39,-208.87 4135.89,-218.87 4139.39,-208.87 4132.39,-208.87"/>
</g>
<!-- FooterComponent  -->
<g id="node34" class="node">
<title>FooterComponent </title>
<polygon fill="#fb8072" stroke="black" points="2034.88,-255 1913.12,-255 1913.12,-219 2034.88,-219 2034.88,-255"/>
<text text-anchor="middle" x="1974" y="-232.8" font-family="Times,serif" font-size="14.00">FooterComponent </text>
</g>
<!-- SharedModule&#45;&gt;FooterComponent  -->
<g id="edge37" class="edge">
<title>SharedModule&#45;&gt;FooterComponent </title>
<path fill="none" stroke="black" stroke-dasharray="5,2" d="M1730.37,-183C1813.87,-183 1974,-183 1974,-183 1974,-183 1974,-208.72 1974,-208.72"/>
<polygon fill="black" stroke="black" points="1970.5,-208.72 1974,-218.72 1977.5,-208.72 1970.5,-208.72"/>
</g>
<!-- HeaderComponent  -->
<g id="node35" class="node">
<title>HeaderComponent </title>
<polygon fill="#fb8072" stroke="black" points="1895.74,-255 1770.26,-255 1770.26,-219 1895.74,-219 1895.74,-255"/>
<text text-anchor="middle" x="1833" y="-232.8" font-family="Times,serif" font-size="14.00">HeaderComponent </text>
</g>
<!-- SharedModule&#45;&gt;HeaderComponent  -->
<g id="edge38" class="edge">
<title>SharedModule&#45;&gt;HeaderComponent </title>
<path fill="none" stroke="black" stroke-dasharray="5,2" d="M1716.15,-187.32C1716.15,-210.66 1716.15,-248 1716.15,-248 1716.15,-248 1760.13,-248 1760.13,-248"/>
<polygon fill="black" stroke="black" points="1760.13,-251.5 1770.13,-248 1760.13,-244.5 1760.13,-251.5"/>
</g>
<!-- MainComponent  -->
<g id="node36" class="node">
<title>MainComponent </title>
<polygon fill="#fb8072" stroke="black" points="2312.38,-255 2197.62,-255 2197.62,-219 2312.38,-219 2312.38,-255"/>
<text text-anchor="middle" x="2255" y="-232.8" font-family="Times,serif" font-size="14.00">MainComponent </text>
</g>
<!-- SharedModule&#45;&gt;MainComponent  -->
<g id="edge39" class="edge">
<title>SharedModule&#45;&gt;MainComponent </title>
<path fill="none" stroke="black" stroke-dasharray="5,2" d="M1730.44,-175C1869.67,-175 2255,-175 2255,-175 2255,-175 2255,-208.73 2255,-208.73"/>
<polygon fill="black" stroke="black" points="2251.5,-208.73 2255,-218.73 2258.5,-208.73 2251.5,-208.73"/>
</g>
<!-- SidebarComponent  -->
<g id="node37" class="node">
<title>SidebarComponent </title>
<polygon fill="#fb8072" stroke="black" points="2179.6,-255 2052.4,-255 2052.4,-219 2179.6,-219 2179.6,-255"/>
<text text-anchor="middle" x="2116" y="-232.8" font-family="Times,serif" font-size="14.00">SidebarComponent </text>
</g>
<!-- SharedModule&#45;&gt;SidebarComponent  -->
<g id="edge40" class="edge">
<title>SharedModule&#45;&gt;SidebarComponent </title>
<path fill="none" stroke="black" stroke-dasharray="5,2" d="M1730.48,-179C1844.49,-179 2116,-179 2116,-179 2116,-179 2116,-208.97 2116,-208.97"/>
<polygon fill="black" stroke="black" points="2112.5,-208.97 2116,-218.97 2119.5,-208.97 2112.5,-208.97"/>
</g>
<!-- SharedModule&#45;&gt;WorldModule -->
<g id="edge43" class="edge">
<title>SharedModule&#45;&gt;WorldModule</title>
<path fill="none" stroke="black" d="M1688.03,-187.19C1688.03,-190.54 1688.03,-193 1688.03,-193 1688.03,-193 4780.11,-193 4780.11,-193 4780.11,-193 4780.11,-208.85 4780.11,-208.85"/>
<polygon fill="black" stroke="black" points="4776.61,-208.85 4780.11,-218.85 4783.61,-208.85 4776.61,-208.85"/>
</g>
<!-- AppComponent -->
<g id="node9" class="node">
<title>AppComponent</title>
<polygon fill="#ffffb3" stroke="black" points="281.94,-187 176.06,-187 176.06,-151 281.94,-151 281.94,-187"/>
<text text-anchor="middle" x="229" y="-164.8" font-family="Times,serif" font-size="14.00">AppComponent</text>
</g>
<!-- AppComponent&#45;&gt;AppModule -->
<g id="edge8" class="edge">
<title>AppComponent&#45;&gt;AppModule</title>
<path fill="none" stroke="black" d="M214.06,-187.22C214.06,-187.22 214.06,-208.73 214.06,-208.73"/>
<polygon fill="black" stroke="black" points="210.56,-208.73 214.06,-218.73 217.56,-208.73 210.56,-208.73"/>
</g>
<!-- AppComponent  -->
<g id="node12" class="node">
<title>AppComponent </title>
<polygon fill="#80b1d3" stroke="black" points="282.44,-323 173.56,-323 173.56,-287 282.44,-287 282.44,-323"/>
<text text-anchor="middle" x="228" y="-300.8" font-family="Times,serif" font-size="14.00">AppComponent </text>
</g>
<!-- AppModule&#45;&gt;AppComponent  -->
<g id="edge11" class="edge">
<title>AppModule&#45;&gt;AppComponent </title>
<path fill="none" stroke="black" stroke-dasharray="1,5" d="M228,-255.22C228,-255.22 228,-276.73 228,-276.73"/>
<polygon fill="black" stroke="black" points="224.5,-276.73 228,-286.73 231.5,-276.73 224.5,-276.73"/>
</g>
<!-- AppRoutingModule -->
<g id="node11" class="node">
<title>AppRoutingModule</title>
<polygon fill="#8dd3c7" stroke="black" points="152.27,-187 149.27,-191 128.27,-191 125.27,-187 23.73,-187 23.73,-151 152.27,-151 152.27,-187"/>
<text text-anchor="middle" x="88" y="-164.8" font-family="Times,serif" font-size="14.00">AppRoutingModule</text>
</g>
<!-- AppRoutingModule&#45;&gt;AppModule -->
<g id="edge9" class="edge">
<title>AppRoutingModule&#45;&gt;AppModule</title>
<path fill="none" stroke="black" d="M88,-187.22C88,-207.37 88,-237 88,-237 88,-237 176,-237 176,-237"/>
<polygon fill="black" stroke="black" points="176,-240.5 186,-237 176,-233.5 176,-240.5"/>
</g>
<!-- LoginComponent -->
<g id="node13" class="node">
<title>LoginComponent</title>
<polygon fill="#ffffb3" stroke="black" points="732.28,-187 617.72,-187 617.72,-151 732.28,-151 732.28,-187"/>
<text text-anchor="middle" x="675" y="-164.8" font-family="Times,serif" font-size="14.00">LoginComponent</text>
</g>
<!-- LoginComponent&#45;&gt;AuthModule -->
<g id="edge12" class="edge">
<title>LoginComponent&#45;&gt;AuthModule</title>
<path fill="none" stroke="black" d="M653.11,-187.22C653.11,-187.22 653.11,-208.73 653.11,-208.73"/>
<polygon fill="black" stroke="black" points="649.61,-208.73 653.11,-218.73 656.61,-208.73 649.61,-208.73"/>
</g>
<!-- SignupComponent -->
<g id="node14" class="node">
<title>SignupComponent</title>
<polygon fill="#ffffb3" stroke="black" points="599.51,-187 478.49,-187 478.49,-151 599.51,-151 599.51,-187"/>
<text text-anchor="middle" x="539" y="-164.8" font-family="Times,serif" font-size="14.00">SignupComponent</text>
</g>
<!-- SignupComponent&#45;&gt;AuthModule -->
<g id="edge13" class="edge">
<title>SignupComponent&#45;&gt;AuthModule</title>
<path fill="none" stroke="black" d="M539,-187.27C539,-205.56 539,-231 539,-231 539,-231 621.22,-231 621.22,-231"/>
<polygon fill="black" stroke="black" points="621.22,-234.5 631.22,-231 621.22,-227.5 621.22,-234.5"/>
</g>
<!-- AuthRoutingModule -->
<g id="node16" class="node">
<title>AuthRoutingModule</title>
<polygon fill="#8dd3c7" stroke="black" points="454.17,-187 451.17,-191 430.17,-191 427.17,-187 321.83,-187 321.83,-151 454.17,-151 454.17,-187"/>
<text text-anchor="middle" x="388" y="-164.8" font-family="Times,serif" font-size="14.00">AuthRoutingModule</text>
</g>
<!-- AuthRoutingModule&#45;&gt;AuthModule -->
<g id="edge14" class="edge">
<title>AuthRoutingModule&#45;&gt;AuthModule</title>
<path fill="none" stroke="black" d="M388,-187.29C388,-209.21 388,-243 388,-243 388,-243 621.41,-243 621.41,-243"/>
<polygon fill="black" stroke="black" points="621.41,-246.5 631.41,-243 621.41,-239.5 621.41,-246.5"/>
</g>
<!-- BoliviaPageComponent -->
<g id="node17" class="node">
<title>BoliviaPageComponent</title>
<polygon fill="#ffffb3" stroke="black" points="3353.77,-187 3204.23,-187 3204.23,-151 3353.77,-151 3353.77,-187"/>
<text text-anchor="middle" x="3279" y="-164.8" font-family="Times,serif" font-size="14.00">BoliviaPageComponent</text>
</g>
<!-- BoliviaPageComponent&#45;&gt;BoliviaModule -->
<g id="edge17" class="edge">
<title>BoliviaPageComponent&#45;&gt;BoliviaModule</title>
<path fill="none" stroke="black" d="M3279,-187.22C3279,-187.22 3279,-208.73 3279,-208.73"/>
<polygon fill="black" stroke="black" points="3275.5,-208.73 3279,-218.73 3282.5,-208.73 3275.5,-208.73"/>
</g>
<!-- ChartComponent -->
<g id="node18" class="node">
<title>ChartComponent</title>
<polygon fill="#ffffb3" stroke="black" points="3186.44,-187 3073.56,-187 3073.56,-151 3186.44,-151 3186.44,-187"/>
<text text-anchor="middle" x="3130" y="-164.8" font-family="Times,serif" font-size="14.00">ChartComponent</text>
</g>
<!-- ChartComponent&#45;&gt;BoliviaModule -->
<g id="edge18" class="edge">
<title>ChartComponent&#45;&gt;BoliviaModule</title>
<path fill="none" stroke="black" d="M3130,-187.03C3130,-204.06 3130,-227 3130,-227 3130,-227 3218.56,-227 3218.56,-227"/>
<polygon fill="black" stroke="black" points="3218.56,-230.5 3228.56,-227 3218.56,-223.5 3218.56,-230.5"/>
</g>
<!-- ClientDatasetsComponent -->
<g id="node19" class="node">
<title>ClientDatasetsComponent</title>
<polygon fill="#ffffb3" stroke="black" points="3955.48,-187 3792.52,-187 3792.52,-151 3955.48,-151 3955.48,-187"/>
<text text-anchor="middle" x="3874" y="-164.8" font-family="Times,serif" font-size="14.00">ClientDatasetsComponent</text>
</g>
<!-- ClientDatasetsComponent&#45;&gt;BoliviaModule -->
<g id="edge19" class="edge">
<title>ClientDatasetsComponent&#45;&gt;BoliviaModule</title>
<path fill="none" stroke="black" d="M3874,-187.32C3874,-210.66 3874,-248 3874,-248 3874,-248 3339.47,-248 3339.47,-248"/>
<polygon fill="black" stroke="black" points="3339.47,-244.5 3329.47,-248 3339.47,-251.5 3339.47,-244.5"/>
</g>
<!-- DepartmentComponent -->
<g id="node20" class="node">
<title>DepartmentComponent</title>
<polygon fill="#ffffb3" stroke="black" points="3774.92,-187 3627.08,-187 3627.08,-151 3774.92,-151 3774.92,-187"/>
<text text-anchor="middle" x="3701" y="-164.8" font-family="Times,serif" font-size="14.00">DepartmentComponent</text>
</g>
<!-- DepartmentComponent&#45;&gt;BoliviaModule -->
<g id="edge20" class="edge">
<title>DepartmentComponent&#45;&gt;BoliviaModule</title>
<path fill="none" stroke="black" d="M3701,-187.17C3701,-208.5 3701,-241 3701,-241 3701,-241 3339.48,-241 3339.48,-241"/>
<polygon fill="black" stroke="black" points="3339.48,-237.5 3329.48,-241 3339.48,-244.5 3339.48,-237.5"/>
</g>
<!-- MapComponent -->
<g id="node21" class="node">
<title>MapComponent</title>
<polygon fill="#ffffb3" stroke="black" points="3609.49,-187 3502.51,-187 3502.51,-151 3609.49,-151 3609.49,-187"/>
<text text-anchor="middle" x="3556" y="-164.8" font-family="Times,serif" font-size="14.00">MapComponent</text>
</g>
<!-- MapComponent&#45;&gt;BoliviaModule -->
<g id="edge21" class="edge">
<title>MapComponent&#45;&gt;BoliviaModule</title>
<path fill="none" stroke="black" d="M3556,-187.11C3556,-206.34 3556,-234 3556,-234 3556,-234 3339.48,-234 3339.48,-234"/>
<polygon fill="black" stroke="black" points="3339.48,-230.5 3329.48,-234 3339.48,-237.5 3339.48,-230.5"/>
</g>
<!-- TableComponent -->
<g id="node22" class="node">
<title>TableComponent</title>
<polygon fill="#ffffb3" stroke="black" points="3484.7,-187 3371.3,-187 3371.3,-151 3484.7,-151 3484.7,-187"/>
<text text-anchor="middle" x="3428" y="-164.8" font-family="Times,serif" font-size="14.00">TableComponent</text>
</g>
<!-- TableComponent&#45;&gt;BoliviaModule -->
<g id="edge22" class="edge">
<title>TableComponent&#45;&gt;BoliviaModule</title>
<path fill="none" stroke="black" d="M3428,-187.03C3428,-204.06 3428,-227 3428,-227 3428,-227 3339.44,-227 3339.44,-227"/>
<polygon fill="black" stroke="black" points="3339.44,-223.5 3329.44,-227 3339.44,-230.5 3339.44,-223.5"/>
</g>
<!-- BoliviaRoutingModule -->
<g id="node24" class="node">
<title>BoliviaRoutingModule</title>
<polygon fill="#8dd3c7" stroke="black" points="3049.89,-187 3046.89,-191 3025.89,-191 3022.89,-187 2904.11,-187 2904.11,-151 3049.89,-151 3049.89,-187"/>
<text text-anchor="middle" x="2977" y="-164.8" font-family="Times,serif" font-size="14.00">BoliviaRoutingModule</text>
</g>
<!-- BoliviaRoutingModule&#45;&gt;BoliviaModule -->
<g id="edge23" class="edge">
<title>BoliviaRoutingModule&#45;&gt;BoliviaModule</title>
<path fill="none" stroke="black" d="M2977,-187.11C2977,-206.34 2977,-234 2977,-234 2977,-234 3218.45,-234 3218.45,-234"/>
<polygon fill="black" stroke="black" points="3218.45,-237.5 3228.45,-234 3218.45,-230.5 3218.45,-237.5"/>
</g>
<!-- HomeComponent -->
<g id="node25" class="node">
<title>HomeComponent</title>
<polygon fill="#ffffb3" stroke="black" points="4474.55,-187 4359.45,-187 4359.45,-151 4474.55,-151 4474.55,-187"/>
<text text-anchor="middle" x="4417" y="-164.8" font-family="Times,serif" font-size="14.00">HomeComponent</text>
</g>
<!-- HomeComponent&#45;&gt;HomeModule -->
<g id="edge26" class="edge">
<title>HomeComponent&#45;&gt;HomeModule</title>
<path fill="none" stroke="black" d="M4417,-187.22C4417,-207.37 4417,-237 4417,-237 4417,-237 4230.05,-237 4230.05,-237"/>
<polygon fill="black" stroke="black" points="4230.05,-233.5 4220.05,-237 4230.05,-240.5 4230.05,-233.5"/>
</g>
<!-- InfvaccinationComponent -->
<g id="node26" class="node">
<title>InfvaccinationComponent</title>
<polygon fill="#ffffb3" stroke="black" points="4341.18,-187 4178.82,-187 4178.82,-151 4341.18,-151 4341.18,-187"/>
<text text-anchor="middle" x="4260" y="-164.8" font-family="Times,serif" font-size="14.00">InfvaccinationComponent</text>
</g>
<!-- InfvaccinationComponent&#45;&gt;HomeModule -->
<g id="edge27" class="edge">
<title>InfvaccinationComponent&#45;&gt;HomeModule</title>
<path fill="none" stroke="black" d="M4199.39,-187.22C4199.39,-187.22 4199.39,-208.73 4199.39,-208.73"/>
<polygon fill="black" stroke="black" points="4195.89,-208.73 4199.39,-218.73 4202.89,-208.73 4195.89,-208.73"/>
</g>
<!-- RecommendationsComponent -->
<g id="node27" class="node">
<title>RecommendationsComponent</title>
<polygon fill="#ffffb3" stroke="black" points="4678.53,-187 4493.47,-187 4493.47,-151 4678.53,-151 4678.53,-187"/>
<text text-anchor="middle" x="4586" y="-164.8" font-family="Times,serif" font-size="14.00">RecommendationsComponent</text>
</g>
<!-- RecommendationsComponent&#45;&gt;HomeModule -->
<g id="edge28" class="edge">
<title>RecommendationsComponent&#45;&gt;HomeModule</title>
<path fill="none" stroke="black" d="M4586,-187.25C4586,-210.02 4586,-246 4586,-246 4586,-246 4229.97,-246 4229.97,-246"/>
<polygon fill="black" stroke="black" points="4229.97,-242.5 4219.97,-246 4229.97,-249.5 4229.97,-242.5"/>
</g>
<!-- HomeRoutingModule -->
<g id="node29" class="node">
<title>HomeRoutingModule</title>
<polygon fill="#8dd3c7" stroke="black" points="4155.38,-187 4152.38,-191 4131.38,-191 4128.38,-187 4016.62,-187 4016.62,-151 4155.38,-151 4155.38,-187"/>
<text text-anchor="middle" x="4086" y="-164.8" font-family="Times,serif" font-size="14.00">HomeRoutingModule</text>
</g>
<!-- HomeRoutingModule&#45;&gt;HomeModule -->
<g id="edge29" class="edge">
<title>HomeRoutingModule&#45;&gt;HomeModule</title>
<path fill="none" stroke="black" d="M4145.67,-187.22C4145.67,-187.22 4145.67,-208.73 4145.67,-208.73"/>
<polygon fill="black" stroke="black" points="4142.17,-208.73 4145.67,-218.73 4149.17,-208.73 4142.17,-208.73"/>
</g>
<!-- FooterComponent -->
<g id="node30" class="node">
<title>FooterComponent</title>
<polygon fill="#ffffb3" stroke="black" points="2593.88,-255 2476.12,-255 2476.12,-219 2593.88,-219 2593.88,-255"/>
<text text-anchor="middle" x="2535" y="-232.8" font-family="Times,serif" font-size="14.00">FooterComponent</text>
</g>
<!-- FooterComponent&#45;&gt;SharedModule -->
<g id="edge32" class="edge">
<title>FooterComponent&#45;&gt;SharedModule</title>
<path fill="none" stroke="black" d="M2535,-218.97C2535,-198.23 2535,-167 2535,-167 2535,-167 1740.29,-167 1740.29,-167"/>
<polygon fill="black" stroke="black" points="1740.29,-163.5 1730.29,-167 1740.29,-170.5 1740.29,-163.5"/>
</g>
<!-- HeaderComponent -->
<g id="node31" class="node">
<title>HeaderComponent</title>
<polygon fill="#ffffb3" stroke="black" points="2457.74,-255 2336.26,-255 2336.26,-219 2457.74,-219 2457.74,-255"/>
<text text-anchor="middle" x="2397" y="-232.8" font-family="Times,serif" font-size="14.00">HeaderComponent</text>
</g>
<!-- HeaderComponent&#45;&gt;SharedModule -->
<g id="edge33" class="edge">
<title>HeaderComponent&#45;&gt;SharedModule</title>
<path fill="none" stroke="black" d="M2397,-218.97C2397,-199.42 2397,-171 2397,-171 2397,-171 1740.21,-171 1740.21,-171"/>
<polygon fill="black" stroke="black" points="1740.21,-167.5 1730.21,-171 1740.21,-174.5 1740.21,-167.5"/>
</g>
<!-- MainComponent -->
<g id="node32" class="node">
<title>MainComponent</title>
<polygon fill="#ffffb3" stroke="black" points="2864.38,-255 2753.62,-255 2753.62,-219 2864.38,-219 2864.38,-255"/>
<text text-anchor="middle" x="2809" y="-232.8" font-family="Times,serif" font-size="14.00">MainComponent</text>
</g>
<!-- MainComponent&#45;&gt;SharedModule -->
<g id="edge34" class="edge">
<title>MainComponent&#45;&gt;SharedModule</title>
<path fill="none" stroke="black" d="M2809,-218.91C2809,-195.87 2809,-159 2809,-159 2809,-159 1740.56,-159 1740.56,-159"/>
<polygon fill="black" stroke="black" points="1740.56,-155.5 1730.56,-159 1740.56,-162.5 1740.56,-155.5"/>
</g>
<!-- SidebarComponent -->
<g id="node33" class="node">
<title>SidebarComponent</title>
<polygon fill="#ffffb3" stroke="black" points="2736.1,-255 2611.9,-255 2611.9,-219 2736.1,-219 2736.1,-255"/>
<text text-anchor="middle" x="2674" y="-232.8" font-family="Times,serif" font-size="14.00">SidebarComponent</text>
</g>
<!-- SidebarComponent&#45;&gt;SharedModule -->
<g id="edge35" class="edge">
<title>SidebarComponent&#45;&gt;SharedModule</title>
<path fill="none" stroke="black" d="M2674,-218.71C2674,-196.79 2674,-163 2674,-163 2674,-163 1740.24,-163 1740.24,-163"/>
<polygon fill="black" stroke="black" points="1740.24,-159.5 1730.24,-163 1740.24,-166.5 1740.24,-159.5"/>
</g>
<!-- WorldPageComponent -->
<g id="node38" class="node">
<title>WorldPageComponent</title>
<polygon fill="#ffffb3" stroke="black" points="5049.31,-187 4904.69,-187 4904.69,-151 5049.31,-151 5049.31,-187"/>
<text text-anchor="middle" x="4977" y="-164.8" font-family="Times,serif" font-size="14.00">WorldPageComponent</text>
</g>
<!-- WorldPageComponent&#45;&gt;WorldModule -->
<g id="edge41" class="edge">
<title>WorldPageComponent&#45;&gt;WorldModule</title>
<path fill="none" stroke="black" d="M4977,-187.22C4977,-207.37 4977,-237 4977,-237 4977,-237 4854.03,-237 4854.03,-237"/>
<polygon fill="black" stroke="black" points="4854.03,-233.5 4844.03,-237 4854.03,-240.5 4854.03,-233.5"/>
</g>
<!-- WorldRoutingModule -->
<g id="node40" class="node">
<title>WorldRoutingModule</title>
<polygon fill="#8dd3c7" stroke="black" points="4881.43,-187 4878.43,-191 4857.43,-191 4854.43,-187 4740.57,-187 4740.57,-151 4881.43,-151 4881.43,-187"/>
<text text-anchor="middle" x="4811" y="-164.8" font-family="Times,serif" font-size="14.00">WorldRoutingModule</text>
</g>
<!-- WorldRoutingModule&#45;&gt;WorldModule -->
<g id="edge44" class="edge">
<title>WorldRoutingModule&#45;&gt;WorldModule</title>
<path fill="none" stroke="black" d="M4811.89,-187.22C4811.89,-187.22 4811.89,-208.73 4811.89,-208.73"/>
<polygon fill="black" stroke="black" points="4808.39,-208.73 4811.89,-218.73 4815.39,-208.73 4808.39,-208.73"/>
</g>
</g>
</svg>
